<?xml version="1.0" encoding="UTF-8" standalone="no"?>
<!-- Created with Inkscape (http://www.inkscape.org/) -->

<svg
   xmlns:dc="http://purl.org/dc/elements/1.1/"
   xmlns:cc="http://creativecommons.org/ns#"
   xmlns:rdf="http://www.w3.org/1999/02/22-rdf-syntax-ns#"
   xmlns:svg="http://www.w3.org/2000/svg"
   xmlns="http://www.w3.org/2000/svg"
   xmlns:sodipodi="http://sodipodi.sourceforge.net/DTD/sodipodi-0.dtd"
   xmlns:inkscape="http://www.inkscape.org/namespaces/inkscape"
   version="1.1"
   id="svg1115"
   xml:space="preserve"
   width="800"
   height="800"
   viewBox="0 0 800 800"
   sodipodi:docname="halftone-11-publicdomainvectors.org [Converted].svg"
   inkscape:version="0.92.4 (5da689c313, 2019-01-14)"><metadata
     id="metadata1121"><rdf:RDF><cc:Work
         rdf:about=""><dc:format>image/svg+xml</dc:format><dc:type
           rdf:resource="http://purl.org/dc/dcmitype/StillImage" /><dc:title></dc:title></cc:Work></rdf:RDF></metadata><defs
     id="defs1119"><clipPath
       clipPathUnits="userSpaceOnUse"
       id="clipPath1131"><path
         d="M 0,600 H 600 V 0 H 0 Z"
         id="path1129"
         inkscape:connector-curvature="0" /></clipPath></defs><sodipodi:namedview
     pagecolor="#ffffff"
     bordercolor="#666666"
     borderopacity="1"
     objecttolerance="10"
     gridtolerance="10"
     guidetolerance="10"
     inkscape:pageopacity="0"
     inkscape:pageshadow="2"
     inkscape:window-width="1920"
     inkscape:window-height="1018"
     id="namedview1117"
     showgrid="false"
     inkscape:zoom="0.83764214"
     inkscape:cx="459.32203"
     inkscape:cy="388.13559"
     inkscape:window-x="-8"
     inkscape:window-y="-8"
     inkscape:window-maximized="1"
     inkscape:current-layer="g1123" /><g
     id="g1123"
     inkscape:groupmode="layer"
     inkscape:label="halftone-11-publicdomainvectors.org [Converted]"
     transform="matrix(1.3333333,0,0,-1.3333333,0,800)"><g
       id="g1125"><g
         id="g1127"
         clip-path="url(#clipPath1131)"><path
           d="m 199.921,307.059 c 0.097,-0.022 0.196,0.04 0.217,0.137 0.024,0.099 -0.036,0.197 -0.138,0.218 -0.097,0.023 -0.193,-0.038 -0.217,-0.137 -0.025,-0.098 0.039,-0.195 0.138,-0.218 m -1.444,14.725 c -0.446,0.158 -0.931,-0.075 -1.087,-0.516 -0.161,-0.444 0.074,-0.931 0.515,-1.087 0.445,-0.157 0.933,0.074 1.089,0.517 0.156,0.443 -0.076,0.928 -0.517,1.086 m 62.94,95.166 c 2.559,0.812 3.977,3.547 3.164,6.107 -0.813,2.56 -3.55,3.977 -6.11,3.162 -2.558,-0.811 -3.973,-3.546 -3.159,-6.105 0.812,-2.563 3.545,-3.977 6.105,-3.164 m -24.585,-21.766 c 1.668,1.001 2.209,3.168 1.21,4.838 -1.006,1.669 -3.167,2.212 -4.841,1.21 -1.668,-1 -2.21,-3.168 -1.211,-4.838 1.003,-1.668 3.168,-2.211 4.842,-1.21 m -22.743,-38.887 c 0.53,0.653 0.431,1.609 -0.223,2.139 -0.65,0.527 -1.607,0.429 -2.137,-0.224 -0.53,-0.651 -0.427,-1.609 0.223,-2.137 0.653,-0.529 1.608,-0.43 2.137,0.222 m -5.539,-26.895 c 0.045,0.093 0.006,0.2 -0.084,0.244 -0.091,0.042 -0.199,0.005 -0.241,-0.086 -0.045,-0.09 -0.007,-0.199 0.084,-0.242 0.09,-0.045 0.198,-0.005 0.241,0.084 m 18.759,53.375 c 1.25,0.964 1.484,2.759 0.521,4.008 -0.964,1.251 -2.758,1.482 -4.01,0.52 -1.249,-0.963 -1.481,-2.757 -0.518,-4.009 0.964,-1.248 2.758,-1.483 4.007,-0.519 m -18.097,-40.269 c 0.397,-0.252 0.921,-0.134 1.174,0.262 0.251,0.397 0.133,0.924 -0.264,1.174 -0.398,0.252 -0.922,0.135 -1.175,-0.262 -0.253,-0.396 -0.132,-0.923 0.265,-1.174 m 39.017,64.158 c 2.114,0.952 3.054,3.438 2.1,5.549 -0.955,2.112 -3.44,3.051 -5.55,2.097 -2.113,-0.952 -3.052,-3.437 -2.098,-5.548 0.954,-2.112 3.435,-3.052 5.548,-2.098 m -28.504,-36.942 c 0.867,0.843 0.882,2.229 0.037,3.095 -0.844,0.865 -2.228,0.881 -3.095,0.039 -0.864,-0.845 -0.879,-2.23 -0.037,-3.096 0.843,-0.865 2.228,-0.883 3.095,-0.038 m 71.671,62.551 c -2.679,-0.223 -4.667,-2.572 -4.444,-5.249 0.222,-2.678 2.576,-4.667 5.252,-4.444 2.674,0.223 4.666,2.575 4.442,5.251 -0.223,2.676 -2.574,4.667 -5.25,4.442 m -30.082,-18.759 c -1.848,-0.605 -2.86,-2.597 -2.255,-4.449 0.605,-1.849 2.595,-2.859 4.447,-2.254 1.851,0.605 2.86,2.595 2.258,4.446 -0.609,1.852 -2.596,2.862 -4.45,2.257 m -34.995,-51.864 c 0.336,0.33 0.336,0.869 0.006,1.204 -0.331,0.334 -0.871,0.335 -1.205,0.004 -0.33,-0.33 -0.333,-0.869 -0.003,-1.203 0.328,-0.333 0.87,-0.337 1.202,-0.005 m -4.697,-12.588 c 0.06,0.08 0.048,0.193 -0.03,0.256 -0.078,0.064 -0.193,0.051 -0.256,-0.028 -0.063,-0.078 -0.052,-0.195 0.03,-0.256 0.075,-0.063 0.193,-0.052 0.256,0.028 m 16.661,37.467 c 0.632,-1.031 1.981,-1.356 3.01,-0.725 1.03,0.632 1.354,1.976 0.726,3.007 -0.629,1.033 -1.978,1.358 -3.007,0.728 -1.033,-0.631 -1.358,-1.976 -0.729,-3.01 m 38.831,28.945 c 2.27,0.459 3.74,2.671 3.282,4.943 -0.458,2.272 -2.674,3.739 -4.944,3.28 -2.269,-0.459 -3.74,-2.672 -3.282,-4.941 0.462,-2.272 2.674,-3.741 4.944,-3.282 m -44.238,-41.488 c 0.663,0.517 0.777,1.473 0.258,2.135 -0.517,0.66 -1.471,0.776 -2.132,0.256 -0.661,-0.516 -0.776,-1.471 -0.257,-2.132 0.517,-0.662 1.471,-0.777 2.131,-0.259 m 16.257,28.038 c -1.434,-0.661 -2.059,-2.359 -1.397,-3.793 0.663,-1.432 2.361,-2.058 3.79,-1.398 1.437,0.663 2.059,2.358 1.401,3.792 -0.662,1.434 -2.361,2.06 -3.794,1.399 m 74.237,19.2 c 2.66,-0.377 5.123,1.471 5.501,4.13 0.378,2.661 -1.475,5.122 -4.132,5.501 -2.659,0.378 -5.121,-1.47 -5.501,-4.13 -0.379,-2.66 1.471,-5.123 4.132,-5.501 m -58.976,-20.442 c -1.147,-0.385 -1.761,-1.627 -1.376,-2.772 0.385,-1.147 1.626,-1.763 2.769,-1.378 1.144,0.385 1.765,1.625 1.38,2.772 -0.385,1.145 -1.626,1.761 -2.773,1.378 m 42.947,25.232 c -2.318,0.059 -4.241,-1.772 -4.301,-4.089 -0.058,-2.316 1.773,-4.24 4.089,-4.299 2.317,-0.057 4.237,1.773 4.301,4.09 0.057,2.317 -1.775,4.241 -4.089,4.298 m -15.994,-6.803 c -1.939,-0.179 -3.365,-1.895 -3.191,-3.834 0.181,-1.94 1.896,-3.367 3.835,-3.19 1.941,0.178 3.366,1.894 3.189,3.835 -0.177,1.938 -1.894,3.368 -3.833,3.189 m -38.348,-31.498 c 0.358,-0.759 1.264,-1.085 2.023,-0.727 0.758,0.358 1.083,1.264 0.728,2.023 -0.36,0.76 -1.264,1.085 -2.023,0.728 -0.758,-0.358 -1.083,-1.264 -0.728,-2.024 m -14.584,-22.202 c -0.078,-0.063 -0.09,-0.178 -0.03,-0.256 0.063,-0.079 0.178,-0.091 0.259,-0.03 0.078,0.064 0.09,0.179 0.027,0.257 -0.063,0.079 -0.178,0.093 -0.256,0.029 m 41.947,42.989 c -0.328,1.543 -1.84,2.531 -3.386,2.206 -1.542,-0.326 -2.534,-1.842 -2.205,-3.387 0.326,-1.544 1.84,-2.53 3.384,-2.205 1.544,0.325 2.533,1.842 2.207,3.386 m -34.137,-30.897 c -0.247,0.399 -0.771,0.522 -1.168,0.272 -0.4,-0.247 -0.525,-0.774 -0.278,-1.171 0.253,-0.399 0.777,-0.522 1.175,-0.273 0.398,0.25 0.524,0.774 0.271,1.172 m 45.296,28.47 c -1.2,-0.122 -2.076,-1.194 -1.956,-2.397 0.121,-1.202 1.192,-2.079 2.396,-1.96 1.203,0.121 2.079,1.193 1.956,2.396 -0.119,1.202 -1.191,2.08 -2.396,1.961 m 45.245,6.993 c 2.247,-0.572 4.526,0.784 5.101,3.029 0.571,2.245 -0.784,4.528 -3.031,5.101 -2.244,0.572 -4.526,-0.785 -5.099,-3.031 -0.571,-2.246 0.786,-4.527 3.029,-5.099 m -58.033,-15.401 c -0.818,-0.179 -1.337,-0.99 -1.159,-1.81 0.181,-0.819 0.99,-1.338 1.81,-1.159 0.818,0.181 1.339,0.99 1.159,1.811 -0.178,0.82 -0.991,1.338 -1.81,1.158 m 74.624,15.331 c 2.509,-0.96 5.32,0.294 6.281,2.803 0.959,2.508 -0.292,5.32 -2.803,6.282 -2.509,0.96 -5.318,-0.295 -6.279,-2.805 -0.966,-2.508 0.294,-5.32 2.801,-6.28 m -31.573,5.092 c -1.931,0.26 -3.705,-1.097 -3.961,-3.027 -0.259,-1.931 1.096,-3.705 3.026,-3.963 1.93,-0.259 3.708,1.097 3.963,3.027 0.258,1.931 -1.099,3.705 -3.028,3.963 M 258.8,377.375 c -0.045,0.09 -0.153,0.128 -0.244,0.084 -0.09,-0.043 -0.127,-0.152 -0.085,-0.244 0.043,-0.09 0.152,-0.128 0.242,-0.085 0.093,0.044 0.132,0.153 0.087,0.245 m 8.385,9.574 c 0.149,-0.445 0.635,-0.68 1.08,-0.527 0.443,0.154 0.678,0.638 0.528,1.082 -0.154,0.444 -0.639,0.68 -1.084,0.527 -0.444,-0.152 -0.681,-0.639 -0.524,-1.082 m 38.753,26.021 c -1.579,0.027 -2.879,-1.232 -2.907,-2.809 -0.027,-1.58 1.234,-2.879 2.811,-2.906 1.578,-0.026 2.878,1.233 2.908,2.809 0.024,1.58 -1.235,2.879 -2.812,2.906 m -25.132,-28.75 c 0.101,0.02 0.161,0.118 0.137,0.218 -0.024,0.098 -0.12,0.159 -0.216,0.137 -0.099,-0.023 -0.164,-0.121 -0.139,-0.219 0.023,-0.099 0.12,-0.159 0.218,-0.136 m 83.741,17.839 c 2.059,-1.059 4.591,-0.243 5.645,1.818 1.059,2.063 0.246,4.59 -1.817,5.646 -2.062,1.059 -4.592,0.244 -5.646,-1.817 -1.06,-2.063 -0.247,-4.59 1.818,-5.647 m 16.122,-3.713 c 2.23,-1.493 5.254,-0.896 6.747,1.335 1.496,2.232 0.897,5.253 -1.333,6.748 -2.231,1.494 -5.253,0.897 -6.746,-1.335 -1.497,-2.231 -0.899,-5.253 1.332,-6.748 m -32.037,5.294 c 1.826,-0.683 3.855,0.245 4.536,2.069 0.683,1.825 -0.245,3.857 -2.067,4.537 -1.827,0.683 -3.859,-0.246 -4.538,-2.069 -0.68,-1.825 0.247,-3.856 2.069,-4.537 m -43.881,-3.824 c -0.838,0.008 -1.523,-0.667 -1.529,-1.506 -0.008,-0.839 0.664,-1.525 1.505,-1.534 0.839,-0.006 1.526,0.667 1.532,1.508 0.011,0.839 -0.667,1.526 -1.508,1.532 m 29.811,8.925 c -1.535,0.376 -3.082,-0.56 -3.458,-2.093 -0.377,-1.532 0.56,-3.079 2.092,-3.456 1.532,-0.378 3.082,0.56 3.455,2.093 0.379,1.532 -0.56,3.079 -2.089,3.456 m -42.451,-17.577 c 0.468,0.049 0.809,0.469 0.753,0.938 -0.049,0.465 -0.47,0.804 -0.935,0.753 -0.468,-0.05 -0.805,-0.471 -0.756,-0.938 0.055,-0.467 0.471,-0.805 0.938,-0.753 m 26.92,14.029 c -1.2,0.15 -2.292,-0.701 -2.443,-1.9 -0.15,-1.199 0.699,-2.294 1.898,-2.442 1.198,-0.151 2.294,0.699 2.444,1.897 0.149,1.2 -0.7,2.295 -1.899,2.445 m 25.007,-11.065 c 1.134,-0.415 2.391,0.171 2.802,1.307 0.416,1.138 -0.169,2.393 -1.306,2.806 -1.138,0.412 -2.391,-0.173 -2.808,-1.308 -0.41,-1.136 0.174,-2.391 1.312,-2.805 m 66.799,-16.279 c 1.953,1.844 2.043,4.922 0.198,6.876 -1.841,1.955 -4.921,2.043 -6.871,0.201 -1.96,-1.844 -2.047,-4.923 -0.204,-6.877 1.847,-1.954 4.924,-2.042 6.877,-0.2 m -36.877,12.384 c 1.625,-1.068 3.814,-0.618 4.883,1.01 1.073,1.627 0.621,3.813 -1.006,4.883 -1.632,1.071 -3.814,0.619 -4.883,-1.007 -1.072,-1.629 -0.62,-3.816 1.006,-4.886 m -16.38,6.786 c -0.71,-1.411 -0.142,-3.127 1.272,-3.835 1.408,-0.71 3.125,-0.14 3.835,1.271 0.707,1.41 0.138,3.127 -1.27,3.834 -1.413,0.711 -3.13,0.14 -3.837,-1.27 m 31.512,-11.816 c 1.776,-1.489 4.418,-1.258 5.909,0.518 1.491,1.775 1.259,4.421 -0.514,5.91 -1.777,1.488 -4.424,1.257 -5.915,-0.519 -1.486,-1.775 -1.254,-4.419 0.52,-5.909 m -72.807,5.276 c 0.467,-0.055 0.887,0.28 0.943,0.746 0.056,0.467 -0.278,0.89 -0.747,0.946 -0.464,0.054 -0.888,-0.28 -0.943,-0.747 -0.056,-0.468 0.279,-0.889 0.747,-0.945 m -12.318,-4.098 c 0,0.099 -0.081,0.182 -0.179,0.182 -0.104,0 -0.185,-0.083 -0.185,-0.182 0,-0.1 0.081,-0.182 0.185,-0.182 0.098,0 0.179,0.082 0.179,0.182 m 24.676,8.627 c -0.192,-0.817 0.309,-1.635 1.126,-1.829 0.819,-0.193 1.637,0.311 1.831,1.127 0.192,0.818 -0.313,1.636 -1.129,1.831 -0.817,0.193 -1.636,-0.311 -1.828,-1.129 m 11.499,-8.94 c -0.444,0.157 -0.93,-0.075 -1.089,-0.518 -0.155,-0.445 0.077,-0.93 0.517,-1.086 0.444,-0.158 0.931,0.074 1.089,0.517 0.157,0.443 -0.077,0.929 -0.517,1.087 m 69.868,-16.805 c -1.851,-1.399 -2.211,-4.032 -0.814,-5.877 1.399,-1.847 4.032,-2.21 5.876,-0.812 1.848,1.399 2.21,4.03 0.815,5.878 -1.4,1.846 -4.03,2.209 -5.877,0.811 m -14.427,2.338 c 1.347,-1.407 3.583,-1.453 4.984,-0.105 1.41,1.349 1.455,3.581 0.106,4.985 -1.347,1.407 -3.58,1.452 -4.986,0.105 -1.405,-1.349 -1.451,-3.581 -0.104,-4.985 m -69.229,11.648 c -0.019,-0.099 0.043,-0.198 0.139,-0.22 0.098,-0.021 0.195,0.04 0.218,0.138 0.024,0.098 -0.035,0.196 -0.137,0.218 -0.097,0.023 -0.196,-0.038 -0.22,-0.136 m 28.253,3.619 c -0.753,0.372 -1.663,0.062 -2.036,-0.692 -0.367,-0.754 -0.059,-1.665 0.697,-2.035 0.752,-0.37 1.666,-0.059 2.033,0.692 0.372,0.755 0.059,1.666 -0.694,2.035 m 74.139,-35.433 c 2.318,1.363 3.09,4.345 1.731,6.659 -1.367,2.315 -4.345,3.086 -6.661,1.724 -2.315,-1.363 -3.09,-4.342 -1.725,-6.658 1.363,-2.315 4.343,-3.088 6.655,-1.725 m -43.183,26.732 c 1.001,1.216 0.831,3.018 -0.386,4.022 -1.219,1.004 -3.022,0.832 -4.027,-0.386 -1.001,-1.218 -0.829,-3.017 0.387,-4.023 1.219,-1.005 3.02,-0.832 4.026,0.387 m -15.849,7.453 c -1.015,0.655 -2.364,0.366 -3.023,-0.65 -0.655,-1.016 -0.367,-2.371 0.651,-3.027 1.014,-0.656 2.369,-0.366 3.021,0.65 0.662,1.016 0.368,2.371 -0.649,3.027 m 30.436,-27.819 c 0.967,-1.248 2.759,-1.481 4.005,-0.518 1.254,0.965 1.489,2.757 0.525,4.007 -0.963,1.251 -2.761,1.483 -4.01,0.52 -1.248,-0.963 -1.482,-2.757 -0.52,-4.009 m -38.421,17.114 c -0.395,0.251 -0.919,0.134 -1.172,-0.263 -0.25,-0.396 -0.133,-0.924 0.263,-1.173 0.397,-0.252 0.923,-0.136 1.176,0.262 0.252,0.397 0.13,0.923 -0.267,1.174 m 28.664,-6.9 c -0.844,0.864 -2.229,0.882 -3.096,0.038 -0.863,-0.843 -0.88,-2.23 -0.036,-3.095 0.843,-0.864 2.228,-0.883 3.093,-0.039 0.868,0.844 0.884,2.23 0.039,3.096 m 49.901,-46.223 c 2.56,0.812 3.98,3.545 3.168,6.107 -0.814,2.559 -3.551,3.975 -6.11,3.163 -2.559,-0.814 -3.976,-3.548 -3.163,-6.108 0.815,-2.558 3.548,-3.976 6.105,-3.162 m -26.63,31.757 c -1.668,-1.001 -2.209,-3.168 -1.212,-4.837 1.004,-1.67 3.168,-2.213 4.841,-1.211 1.67,1.001 2.211,3.168 1.214,4.837 -1.008,1.671 -3.17,2.214 -4.843,1.211 m -37.687,18.985 c -0.654,0.529 -1.611,0.429 -2.141,-0.223 -0.526,-0.652 -0.431,-1.609 0.222,-2.137 0.653,-0.529 1.611,-0.43 2.141,0.222 0.529,0.651 0.428,1.609 -0.222,2.138 m 50.013,-29.252 c -2.111,-0.952 -3.05,-3.436 -2.097,-5.549 0.952,-2.111 3.435,-3.05 5.549,-2.097 2.111,0.952 3.05,3.436 2.098,5.549 -0.952,2.11 -3.436,3.052 -5.55,2.097 m -78.274,31.899 c -0.047,-0.091 -0.005,-0.2 0.085,-0.245 0.092,-0.042 0.2,-0.003 0.244,0.086 0.041,0.093 0.005,0.2 -0.084,0.243 -0.093,0.044 -0.199,0.007 -0.245,-0.084 m 96.411,-75.07 c -2.676,-0.222 -4.665,-2.573 -4.442,-5.25 0.223,-2.678 2.574,-4.667 5.252,-4.444 2.675,0.225 4.664,2.575 4.442,5.251 -0.224,2.677 -2.574,4.667 -5.252,4.443 m -28.939,37.96 c -1.434,-0.661 -2.06,-2.359 -1.396,-3.791 0.658,-1.434 2.354,-2.059 3.786,-1.399 1.432,0.661 2.06,2.359 1.399,3.791 -0.659,1.434 -2.356,2.06 -3.789,1.399 m 15.274,-13.139 c -0.601,1.853 -2.595,2.862 -4.444,2.256 -1.854,-0.605 -2.866,-2.595 -2.256,-4.446 0.601,-1.851 2.595,-2.861 4.445,-2.257 1.853,0.606 2.862,2.596 2.255,4.447 m -50.264,34.385 c -0.331,0.332 -0.872,0.335 -1.208,0.005 -0.335,-0.332 -0.335,-0.87 -0.003,-1.205 0.333,-0.333 0.871,-0.335 1.203,-0.004 0.331,0.331 0.335,0.87 0.008,1.204 m 13.065,-7.559 c 0.664,0.518 0.777,1.471 0.26,2.133 -0.519,0.661 -1.471,0.776 -2.131,0.258 -0.663,-0.517 -0.777,-1.473 -0.26,-2.134 0.517,-0.661 1.472,-0.776 2.131,-0.257 m 44.155,-45.483 c 2.27,0.458 3.739,2.671 3.281,4.943 -0.456,2.271 -2.674,3.74 -4.942,3.28 -2.272,-0.458 -3.74,-2.672 -3.284,-4.943 0.463,-2.271 2.674,-3.74 4.945,-3.28 m -70.792,56.355 c -0.063,-0.078 -0.049,-0.193 0.03,-0.255 0.078,-0.063 0.194,-0.051 0.255,0.029 0.063,0.079 0.052,0.194 -0.029,0.256 -0.079,0.064 -0.194,0.05 -0.256,-0.03 m 39.932,-16.289 c -0.632,1.033 -1.981,1.358 -3.009,0.728 -1.031,-0.631 -1.356,-1.978 -0.727,-3.01 0.628,-1.031 1.978,-1.356 3.009,-0.726 1.028,0.63 1.358,1.977 0.727,3.008 m 31.794,-81.942 c -0.38,-2.658 1.469,-5.121 4.129,-5.499 2.659,-0.378 5.121,1.472 5.498,4.129 0.379,2.66 -1.468,5.123 -4.131,5.501 -2.659,0.377 -5.12,-1.47 -5.496,-4.131 m -9.37,30.619 c 0.177,-1.94 1.895,-3.368 3.831,-3.19 1.94,0.178 3.371,1.893 3.188,3.834 -0.173,1.939 -1.894,3.367 -3.83,3.19 -1.94,-0.179 -3.371,-1.895 -3.189,-3.834 m 5.581,-14.739 c -0.058,-2.316 1.773,-4.243 4.088,-4.3 2.319,-0.057 4.242,1.774 4.302,4.09 0.06,2.316 -1.772,4.242 -4.089,4.299 -2.318,0.057 -4.244,-1.773 -4.301,-4.089 m -17.121,41.447 c -0.386,1.146 -1.627,1.761 -2.772,1.378 -1.146,-0.385 -1.766,-1.625 -1.379,-2.771 0.386,-1.148 1.624,-1.763 2.772,-1.379 1.148,0.385 1.76,1.627 1.379,2.772 m -35.269,24.558 c -0.078,-0.061 -0.092,-0.179 -0.029,-0.256 0.065,-0.078 0.179,-0.092 0.258,-0.028 0.076,0.063 0.09,0.177 0.031,0.255 -0.069,0.08 -0.183,0.093 -0.26,0.029 m 12.199,-7.352 c 0.399,0.247 0.518,0.772 0.27,1.171 -0.245,0.399 -0.773,0.521 -1.17,0.274 -0.4,-0.25 -0.523,-0.773 -0.276,-1.171 0.249,-0.402 0.776,-0.523 1.176,-0.274 m 30.827,-32.717 c 1.542,0.327 2.53,1.842 2.205,3.386 -0.326,1.545 -1.841,2.533 -3.383,2.206 -1.548,-0.325 -2.536,-1.84 -2.209,-3.385 0.326,-1.545 1.84,-2.532 3.387,-2.207 m -19.507,23.679 c 0.76,0.358 1.082,1.266 0.724,2.023 -0.356,0.76 -1.26,1.085 -2.021,0.728 -0.759,-0.359 -1.085,-1.264 -0.727,-2.024 0.359,-0.758 1.266,-1.083 2.024,-0.727 m -1.296,-11.618 c -0.153,0.445 -0.638,0.681 -1.084,0.527 -0.441,-0.154 -0.68,-0.638 -0.526,-1.082 0.153,-0.444 0.637,-0.681 1.084,-0.527 0.443,0.153 0.677,0.638 0.526,1.082 m 28.735,-72 c 2.245,-0.572 4.527,0.786 5.098,3.031 0.574,2.245 -0.786,4.529 -3.027,5.099 -2.248,0.573 -4.527,-0.785 -5.1,-3.03 -0.572,-2.245 0.782,-4.528 3.029,-5.1 m -39.513,80.728 c -0.089,-0.044 -0.124,-0.152 -0.084,-0.244 0.046,-0.09 0.156,-0.128 0.245,-0.084 0.09,0.044 0.128,0.152 0.088,0.242 -0.047,0.092 -0.159,0.129 -0.249,0.086 m 24.578,-32.015 c 0.117,-1.204 1.191,-2.081 2.391,-1.96 1.205,0.119 2.081,1.194 1.964,2.395 -0.119,1.203 -1.192,2.08 -2.397,1.961 -1.204,-0.121 -2.081,-1.194 -1.958,-2.396 m 11.388,-13.54 c 0.027,1.577 -1.232,2.878 -2.808,2.905 -1.577,0.027 -2.879,-1.234 -2.906,-2.81 -0.023,-1.578 1.234,-2.878 2.812,-2.904 1.577,-0.027 2.877,1.229 2.902,2.809 m 6.992,-43.547 c -2.51,0.96 -5.319,-0.296 -6.282,-2.804 -0.96,-2.509 0.296,-5.321 2.803,-6.282 2.507,-0.96 5.32,0.295 6.283,2.804 0.959,2.508 -0.294,5.321 -2.804,6.282 m -23.677,68.034 c 0.819,0.18 1.336,0.991 1.16,1.811 -0.181,0.82 -0.992,1.338 -1.81,1.157 -0.819,-0.179 -1.339,-0.99 -1.162,-1.809 0.18,-0.82 0.993,-1.338 1.812,-1.159 m 21.995,-39.932 c 0.256,1.928 -1.098,3.702 -3.028,3.96 -1.934,0.261 -3.703,-1.096 -3.961,-3.026 -0.26,-1.93 1.093,-3.706 3.028,-3.964 1.926,-0.257 3.703,1.097 3.961,3.03 M 422.72,209.746 c -2.234,1.496 -5.253,0.898 -6.75,-1.333 -1.493,-2.235 -0.898,-5.254 1.336,-6.751 2.234,-1.492 5.251,-0.896 6.747,1.337 1.496,2.23 0.897,5.251 -1.333,6.747 m -0.71,41.793 c 1.532,-0.378 3.08,0.56 3.455,2.092 0.376,1.534 -0.56,3.08 -2.092,3.458 -1.531,0.376 -3.08,-0.561 -3.46,-2.093 -0.373,-1.532 0.561,-3.081 2.097,-3.457 m -12.986,43.416 c -0.051,0.468 -0.472,0.805 -0.935,0.754 -0.471,-0.049 -0.808,-0.47 -0.756,-0.938 0.051,-0.466 0.468,-0.804 0.936,-0.754 0.47,0.051 0.808,0.471 0.755,0.938 m -8.354,10.698 c -0.024,0.098 -0.119,0.16 -0.22,0.136 -0.097,-0.021 -0.161,-0.12 -0.136,-0.217 0.022,-0.098 0.118,-0.159 0.217,-0.138 0.096,0.024 0.16,0.122 0.139,0.219 m 24.333,-79.545 c -2.06,1.057 -4.59,0.244 -5.644,-1.817 -1.06,-2.063 -0.247,-4.591 1.818,-5.649 2.06,-1.055 4.591,-0.242 5.645,1.82 1.059,2.061 0.245,4.59 -1.819,5.646 m -5.763,40.757 c 1.198,-0.149 2.294,0.7 2.444,1.9 0.152,1.199 -0.703,2.295 -1.899,2.444 -1.203,0.151 -2.294,-0.699 -2.446,-1.898 -0.151,-1.201 0.702,-2.295 1.901,-2.446 m 5.931,-24.888 c -1.825,0.681 -3.856,-0.246 -4.535,-2.07 -0.68,-1.824 0.245,-3.854 2.068,-4.536 1.824,-0.682 3.857,0.245 4.538,2.069 0.68,1.823 -0.249,3.856 -2.071,4.537 m -9.051,40.629 c 0.005,0.839 -0.67,1.527 -1.508,1.532 -0.84,0.008 -1.525,-0.668 -1.534,-1.507 -0.006,-0.839 0.67,-1.525 1.511,-1.533 0.84,-0.005 1.525,0.668 1.531,1.508 m -13.208,-82.245 c -1.49,-1.772 -1.257,-4.419 0.517,-5.905 1.773,-1.491 4.421,-1.259 5.912,0.514 1.488,1.774 1.254,4.423 -0.518,5.91 -1.776,1.49 -4.42,1.259 -5.911,-0.519 m -6.782,-14.699 c -1.951,-1.847 -2.041,-4.923 -0.198,-6.877 1.84,-1.954 4.918,-2.044 6.877,-0.202 1.95,1.843 2.04,4.922 0.198,6.877 -1.845,1.953 -4.921,2.043 -6.877,0.202 m 16.337,30.618 c -1.627,1.072 -3.816,0.619 -4.884,-1.006 -1.071,-1.629 -0.62,-3.815 1.004,-4.886 1.63,-1.069 3.82,-0.618 4.886,1.01 1.069,1.626 0.618,3.812 -1.006,4.882 m -5.071,54.292 c 0.469,-0.052 0.891,0.28 0.946,0.746 0.052,0.468 -0.278,0.891 -0.748,0.945 -0.462,0.054 -0.884,-0.28 -0.942,-0.746 -0.054,-0.467 0.282,-0.89 0.744,-0.945 m 2.192,-12.107 c -0.193,-0.817 0.313,-1.636 1.13,-1.829 0.815,-0.195 1.635,0.31 1.83,1.127 0.19,0.818 -0.311,1.636 -1.129,1.831 -0.818,0.191 -1.638,-0.313 -1.831,-1.129 m 2.538,-16.685 c 1.135,-0.415 2.389,0.171 2.802,1.308 0.417,1.135 -0.168,2.391 -1.306,2.804 -1.14,0.414 -2.391,-0.171 -2.807,-1.308 -0.411,-1.136 0.174,-2.393 1.311,-2.804 m 1.899,-10.406 c -1.412,0.708 -3.13,0.14 -3.838,-1.271 -0.708,-1.412 -0.139,-3.127 1.273,-3.835 1.409,-0.71 3.125,-0.14 3.836,1.27 0.707,1.409 0.139,3.127 -1.271,3.836 m -11.657,51.983 c 0.103,0 0.179,0.082 0.182,0.182 -0.003,0.102 -0.084,0.183 -0.182,0.183 -0.103,0 -0.18,-0.081 -0.185,-0.183 0.005,-0.1 0.085,-0.182 0.185,-0.182 m -2.887,-21.659 c 0.019,0.099 -0.041,0.198 -0.138,0.219 -0.101,0.021 -0.197,-0.039 -0.22,-0.139 -0.022,-0.097 0.043,-0.195 0.139,-0.217 0.094,-0.023 0.195,0.041 0.219,0.137 m 3.205,-42.035 c 0.659,1.016 0.362,2.372 -0.65,3.025 -1.018,0.658 -2.372,0.365 -3.028,-0.65 -0.654,-1.016 -0.362,-2.37 0.65,-3.025 1.018,-0.657 2.373,-0.365 3.028,0.65 m 0.892,14.794 c 0.367,0.754 0.061,1.666 -0.696,2.035 -0.75,0.37 -1.664,0.06 -2.032,-0.693 -0.373,-0.752 -0.06,-1.664 0.694,-2.033 0.75,-0.37 1.662,-0.063 2.034,0.691 M 381.63,180.769 c -1.845,-1.398 -2.21,-4.028 -0.811,-5.878 1.401,-1.844 4.035,-2.208 5.879,-0.813 1.845,1.402 2.209,4.035 0.81,5.881 -1.398,1.846 -4.029,2.209 -5.878,0.81 m 19.215,68.356 c -0.158,-0.442 0.076,-0.931 0.516,-1.086 0.445,-0.156 0.928,0.073 1.086,0.518 0.157,0.441 -0.074,0.927 -0.52,1.086 -0.439,0.157 -0.925,-0.076 -1.082,-0.518 m -29.042,-81.168 c -2.312,-1.363 -3.082,-4.346 -1.722,-6.66 1.362,-2.316 4.343,-3.091 6.659,-1.726 2.314,1.364 3.089,4.343 1.723,6.655 -1.36,2.318 -4.342,3.09 -6.66,1.731 m 22.627,26.186 c -1.347,1.405 -3.581,1.452 -4.988,0.101 -1.406,-1.345 -1.449,-3.576 -0.106,-4.984 1.352,-1.405 3.584,-1.452 4.99,-0.105 1.407,1.351 1.456,3.584 0.104,4.988 m 5.207,10.317 c 1.004,1.219 0.833,3.019 -0.39,4.025 -1.215,1.003 -3.015,0.831 -4.02,-0.386 -1.001,-1.219 -0.83,-3.023 0.389,-4.025 1.215,-1.003 3.02,-0.832 4.021,0.386 m -7.964,36.756 c 0.047,0.089 0.006,0.199 -0.083,0.243 -0.09,0.043 -0.198,0.004 -0.243,-0.086 -0.046,-0.091 -0.005,-0.199 0.085,-0.241 0.091,-0.047 0.201,-0.009 0.241,0.084 m -35.056,-74.765 c -2.114,-0.952 -3.052,-3.434 -2.097,-5.546 0.955,-2.114 3.435,-3.052 5.55,-2.103 2.112,0.958 3.052,3.439 2.097,5.552 -0.955,2.114 -3.437,3.053 -5.55,2.097 m 30.739,49.3 c -0.53,-0.652 -0.427,-1.609 0.224,-2.136 0.649,-0.529 1.607,-0.43 2.138,0.222 0.53,0.651 0.429,1.608 -0.223,2.137 -0.651,0.529 -1.608,0.429 -2.139,-0.223 m -1.738,-16.108 c 0.864,0.845 0.881,2.23 0.038,3.095 -0.846,0.865 -2.231,0.881 -3.095,0.038 -0.864,-0.841 -0.882,-2.226 -0.04,-3.094 0.844,-0.868 2.232,-0.885 3.097,-0.039 m -5.776,-10.114 c -0.963,1.254 -2.759,1.482 -4.01,0.519 -1.248,-0.964 -1.48,-2.759 -0.518,-4.005 0.964,-1.252 2.757,-1.482 4.012,-0.52 1.245,0.963 1.479,2.754 0.516,4.006 m 10.68,37.998 c 0.401,-0.252 0.923,-0.134 1.176,0.263 0.253,0.398 0.133,0.924 -0.261,1.175 -0.4,0.251 -0.925,0.134 -1.178,-0.263 -0.25,-0.396 -0.133,-0.924 0.263,-1.175 M 372.01,176.638 c -1.001,1.669 -3.17,2.21 -4.837,1.21 -1.668,-1.002 -2.209,-3.166 -1.211,-4.843 1.001,-1.667 3.17,-2.208 4.84,-1.208 1.671,1.005 2.212,3.168 1.208,4.841 m -27.766,-20.496 c -2.559,-0.812 -3.974,-3.548 -3.161,-6.105 0.813,-2.56 3.548,-3.975 6.105,-3.162 2.56,0.809 3.977,3.545 3.165,6.104 -0.812,2.561 -3.549,3.976 -6.109,3.163 m 21.098,30.864 c -0.631,1.033 -1.981,1.358 -3.009,0.73 -1.033,-0.633 -1.357,-1.978 -0.729,-3.01 0.631,-1.03 1.98,-1.356 3.011,-0.727 1.029,0.631 1.355,1.979 0.727,3.007 M 344.1,160.159 c 1.849,0.608 2.862,2.598 2.258,4.448 -0.607,1.853 -2.595,2.86 -4.451,2.258 -1.846,-0.606 -2.859,-2.595 -2.256,-4.451 0.608,-1.847 2.599,-2.859 4.449,-2.255 m -29.256,-9.374 c -2.674,-0.223 -4.666,-2.574 -4.443,-5.252 0.224,-2.674 2.574,-4.665 5.251,-4.442 2.677,0.223 4.668,2.574 4.443,5.252 -0.224,2.676 -2.574,4.664 -5.251,4.442 m 14.3,7.313 c -2.27,-0.46 -3.74,-2.672 -3.28,-4.944 0.46,-2.268 2.672,-3.738 4.941,-3.281 2.271,0.457 3.744,2.674 3.281,4.943 -0.457,2.272 -2.669,3.742 -4.942,3.282 m 26.254,13.545 c 1.434,0.661 2.06,2.359 1.402,3.789 -0.664,1.436 -2.362,2.061 -3.796,1.399 -1.431,-0.658 -2.059,-2.358 -1.396,-3.788 0.663,-1.436 2.357,-2.059 3.79,-1.4 m 14.172,25.523 c 0.519,-0.663 1.475,-0.778 2.133,-0.261 0.66,0.519 0.777,1.476 0.258,2.135 -0.514,0.659 -1.47,0.778 -2.133,0.26 -0.661,-0.522 -0.775,-1.475 -0.258,-2.134 m 9.722,26.159 c -0.064,-0.077 -0.051,-0.191 0.03,-0.255 0.074,-0.062 0.192,-0.049 0.256,0.03 0.06,0.079 0.047,0.193 -0.03,0.255 -0.078,0.065 -0.193,0.05 -0.256,-0.03 m -2.616,-13.281 c 0.332,0.332 0.337,0.868 0.005,1.205 -0.331,0.331 -0.872,0.333 -1.205,0.003 -0.332,-0.333 -0.338,-0.87 -0.006,-1.201 0.333,-0.337 0.871,-0.337 1.206,-0.007 m -76.069,-53.969 c -2.318,0.056 -4.241,-1.776 -4.297,-4.091 -0.061,-2.315 1.773,-4.239 4.088,-4.295 2.318,-0.063 4.238,1.768 4.299,4.086 0.056,2.315 -1.774,4.241 -4.09,4.3 m 56.674,41.535 c -0.397,-0.246 -0.519,-0.773 -0.272,-1.174 0.247,-0.397 0.775,-0.517 1.176,-0.27 0.396,0.247 0.516,0.771 0.268,1.171 -0.244,0.399 -0.772,0.52 -1.172,0.273 m -16.513,-24.136 c 1.142,0.383 1.759,1.621 1.377,2.771 -0.387,1.147 -1.628,1.764 -2.773,1.377 -1.145,-0.385 -1.764,-1.626 -1.377,-2.772 0.384,-1.145 1.624,-1.762 2.773,-1.376 m 10.444,13.024 c -0.362,0.762 -1.266,1.086 -2.024,0.727 -0.759,-0.358 -1.085,-1.263 -0.729,-2.025 0.358,-0.76 1.265,-1.084 2.023,-0.724 0.759,0.357 1.083,1.262 0.73,2.022 m -22.115,-23.027 c 1.545,0.326 2.533,1.841 2.209,3.389 -0.327,1.54 -1.845,2.527 -3.385,2.203 -1.545,-0.326 -2.535,-1.844 -2.206,-3.383 0.324,-1.549 1.839,-2.535 3.382,-2.209 m -13.508,-8.693 c 1.94,0.177 3.368,1.894 3.191,3.83 -0.178,1.941 -1.896,3.371 -3.835,3.195 -1.94,-0.182 -3.366,-1.9 -3.189,-3.836 0.18,-1.941 1.893,-3.368 3.833,-3.189 m 48.031,53.734 c -0.082,-0.064 -0.094,-0.178 -0.03,-0.256 0.059,-0.078 0.175,-0.093 0.256,-0.031 0.079,0.064 0.092,0.178 0.027,0.257 -0.06,0.081 -0.175,0.093 -0.253,0.03 m -78.528,-56.41 c -2.661,0.375 -5.124,-1.472 -5.5,-4.131 -0.379,-2.663 1.469,-5.124 4.127,-5.499 2.661,-0.382 5.125,1.467 5.505,4.126 0.375,2.66 -1.473,5.125 -4.132,5.504 m 42.054,25.018 c 0.819,0.182 1.341,0.99 1.16,1.813 -0.181,0.818 -0.991,1.337 -1.813,1.155 -0.818,-0.181 -1.336,-0.987 -1.156,-1.809 0.18,-0.821 0.987,-1.34 1.809,-1.159 m -54.704,-16.685 c -2.247,0.571 -4.529,-0.785 -5.101,-3.029 -0.571,-2.247 0.783,-4.529 3.029,-5.101 2.245,-0.572 4.528,0.784 5.101,3.029 0.571,2.246 -0.783,4.529 -3.029,5.101 m 15.204,2.426 c -1.934,0.258 -3.707,-1.096 -3.961,-3.025 -0.261,-1.929 1.093,-3.705 3.024,-3.967 1.929,-0.256 3.705,1.099 3.961,3.031 0.258,1.931 -1.099,3.703 -3.024,3.961 m 57.512,34.768 c -0.089,-0.046 -0.128,-0.153 -0.084,-0.244 0.044,-0.09 0.153,-0.13 0.242,-0.088 0.09,0.046 0.13,0.156 0.085,0.248 -0.044,0.089 -0.15,0.126 -0.243,0.084 m -8.53,-9.213 c -0.441,-0.154 -0.682,-0.638 -0.524,-1.084 0.151,-0.445 0.634,-0.681 1.081,-0.524 0.443,0.151 0.677,0.638 0.528,1.081 -0.155,0.442 -0.64,0.681 -1.085,0.527 m -80.155,-28.439 c -2.508,0.961 -5.323,-0.296 -6.281,-2.802 -0.963,-2.508 0.295,-5.321 2.8,-6.283 2.511,-0.959 5.323,0.296 6.284,2.803 0.959,2.508 -0.295,5.323 -2.803,6.282 m 58.822,8.567 c 1.2,0.12 2.077,1.194 1.956,2.394 -0.119,1.202 -1.191,2.082 -2.394,1.961 -1.199,-0.122 -2.081,-1.194 -1.959,-2.396 0.121,-1.203 1.193,-2.079 2.397,-1.959 m -13.54,-7.177 c 1.579,-0.024 2.879,1.236 2.906,2.813 0.025,1.579 -1.235,2.879 -2.812,2.903 -1.578,0.027 -2.879,-1.232 -2.904,-2.81 -0.027,-1.578 1.233,-2.878 2.81,-2.906 m 1.13,13.782 c 0.841,-0.005 1.525,0.67 1.534,1.507 0.008,0.844 -0.667,1.527 -1.51,1.536 -0.838,0.006 -1.523,-0.67 -1.529,-1.508 -0.011,-0.841 0.667,-1.526 1.505,-1.535 m -12.861,-1.409 c -1.196,0.153 -2.29,-0.697 -2.439,-1.896 -0.15,-1.199 0.698,-2.293 1.896,-2.443 1.2,-0.152 2.292,0.696 2.446,1.899 0.149,1.197 -0.699,2.291 -1.903,2.44 m 34.845,17.428 c -0.098,-0.024 -0.157,-0.121 -0.136,-0.221 0.022,-0.098 0.12,-0.159 0.22,-0.134 0.096,0.02 0.155,0.117 0.139,0.216 -0.025,0.097 -0.125,0.159 -0.223,0.139 M 246.05,170.916 c -2.065,1.058 -4.594,0.242 -5.648,-1.816 -1.06,-2.066 -0.243,-4.593 1.819,-5.649 2.062,-1.06 4.588,-0.242 5.648,1.818 1.053,2.062 0.24,4.589 -1.819,5.647 m 68.71,11.464 c 0.465,0.051 0.805,0.473 0.75,0.936 -0.049,0.47 -0.467,0.807 -0.936,0.755 -0.465,-0.05 -0.803,-0.469 -0.756,-0.936 0.054,-0.469 0.473,-0.807 0.942,-0.755 m -84.347,-8.403 c -2.231,1.493 -5.25,0.898 -6.747,-1.338 -1.496,-2.232 -0.897,-5.251 1.334,-6.747 2.233,-1.496 5.253,-0.896 6.75,1.335 1.493,2.234 0.896,5.256 -1.337,6.75 m -23.465,4.609 c -1.981,-2.326 -1.703,-5.819 0.617,-7.801 2.324,-1.985 5.82,-1.708 7.801,0.618 1.984,2.324 1.707,5.817 -0.617,7.8 -2.324,1.982 -5.817,1.704 -7.801,-0.617 m 69.16,-7.65 c -1.532,0.373 -3.08,-0.561 -3.456,-2.096 -0.38,-1.528 0.56,-3.076 2.092,-3.457 1.532,-0.376 3.079,0.56 3.457,2.097 0.376,1.53 -0.56,3.077 -2.093,3.456 m -14.739,-0.994 c -1.826,0.681 -3.857,-0.248 -4.537,-2.07 -0.685,-1.825 0.244,-3.854 2.067,-4.535 1.826,-0.683 3.856,0.244 4.541,2.067 0.68,1.826 -0.248,3.858 -2.071,4.538 m -8.121,6.603 c 0.708,1.411 0.142,3.129 -1.27,3.836 -1.412,0.707 -3.128,0.14 -3.835,-1.271 -0.708,-1.412 -0.139,-3.129 1.27,-3.836 1.413,-0.708 3.128,-0.141 3.835,1.271 m -15.821,6.099 c -1.628,1.069 -3.814,0.618 -4.883,-1.007 -1.071,-1.625 -0.62,-3.812 1.006,-4.884 1.629,-1.072 3.814,-0.621 4.884,1.008 1.071,1.63 0.62,3.814 -1.007,4.883 m 43.323,-2.899 c 0.193,0.819 -0.312,1.638 -1.131,1.83 -0.813,0.193 -1.632,-0.312 -1.828,-1.129 -0.195,-0.814 0.311,-1.633 1.129,-1.827 0.816,-0.195 1.635,0.31 1.83,1.126 m 11.489,5.004 c -0.468,0.054 -0.892,-0.28 -0.947,-0.747 -0.054,-0.47 0.283,-0.891 0.748,-0.946 0.469,-0.053 0.891,0.281 0.944,0.747 0.055,0.47 -0.28,0.891 -0.745,0.946 m -69.497,2.203 c -1.777,1.489 -4.423,1.26 -5.913,-0.517 -1.488,-1.776 -1.258,-4.418 0.518,-5.91 1.776,-1.491 4.42,-1.255 5.91,0.514 1.49,1.776 1.255,4.424 -0.515,5.913 m 43.383,-6.885 c -1.135,0.412 -2.39,-0.171 -2.806,-1.309 -0.412,-1.131 0.175,-2.393 1.31,-2.807 1.135,-0.409 2.39,0.175 2.802,1.311 0.417,1.134 -0.168,2.392 -1.306,2.805 m 37.663,8.969 c 0.098,0 0.179,0.081 0.179,0.182 0,0.101 -0.081,0.182 -0.179,0.182 -0.104,0 -0.185,-0.081 -0.185,-0.182 0,-0.101 0.081,-0.182 0.185,-0.182 m -95.587,4.323 c -1.843,1.957 -4.92,2.044 -6.873,0.199 -1.954,-1.842 -2.045,-4.918 -0.203,-6.873 1.843,-1.954 4.923,-2.043 6.876,-0.203 1.955,1.847 2.042,4.927 0.2,6.877 m -21.834,9.662 c -2.45,-1.826 -2.959,-5.291 -1.135,-7.741 1.825,-2.45 5.29,-2.96 7.741,-1.134 2.45,1.826 2.959,5.29 1.135,7.739 -1.825,2.454 -5.29,2.96 -7.741,1.136 m 2.83,7.439 c 2.313,1.362 3.086,4.346 1.722,6.662 -1.36,2.312 -4.341,3.086 -6.656,1.723 -2.315,-1.364 -3.085,-4.344 -1.725,-6.657 1.361,-2.318 4.341,-3.089 6.659,-1.728 m 22.713,-15.059 c 1.348,-1.404 3.579,-1.452 4.986,-0.103 1.402,1.349 1.45,3.582 0.102,4.986 -1.349,1.405 -3.58,1.451 -4.985,0.102 -1.408,-1.346 -1.452,-3.576 -0.103,-4.985 m -40.125,35.941 c -2.795,-1.233 -4.059,-4.5 -2.825,-7.295 1.231,-2.796 4.498,-4.062 7.292,-2.828 2.796,1.233 4.064,4.5 2.83,7.295 -1.234,2.795 -4.501,4.06 -7.297,2.828 m 31.063,-29.523 c 1.845,1.398 2.21,4.029 0.81,5.876 -1.4,1.847 -4.032,2.21 -5.88,0.811 -1.842,-1.401 -2.207,-4.03 -0.807,-5.876 1.397,-1.847 4.028,-2.211 5.877,-0.811 m 80.048,-9.82 c 0.094,-0.024 0.191,0.04 0.214,0.139 0.025,0.094 -0.039,0.194 -0.138,0.216 -0.096,0.024 -0.191,-0.037 -0.216,-0.138 -0.025,-0.097 0.038,-0.193 0.14,-0.217 m -25.11,-1.982 c -0.753,0.368 -1.662,0.061 -2.036,-0.693 -0.367,-0.754 -0.06,-1.667 0.692,-2.035 0.756,-0.372 1.668,-0.06 2.036,0.693 0.373,0.754 0.061,1.663 -0.692,2.035 m -30.769,0.47 c 1.216,-1.002 3.017,-0.831 4.023,0.385 1.005,1.219 0.83,3.02 -0.386,4.023 -1.216,1.005 -3.02,0.834 -4.022,-0.385 -1.006,-1.217 -0.832,-3.018 0.385,-4.023 m 17.323,1.012 c -1.017,0.656 -2.372,0.36 -3.028,-0.654 -0.654,-1.014 -0.362,-2.369 0.65,-3.026 1.017,-0.655 2.371,-0.364 3.029,0.651 0.655,1.017 0.364,2.373 -0.651,3.029 m 25.831,-2.756 c 0.446,-0.159 0.933,0.077 1.09,0.519 0.157,0.442 -0.078,0.93 -0.518,1.088 -0.445,0.156 -0.93,-0.077 -1.089,-0.519 -0.157,-0.445 0.078,-0.931 0.517,-1.088 m -33.824,14.07 c -0.527,-0.651 -0.43,-1.608 0.223,-2.137 0.654,-0.53 1.61,-0.429 2.137,0.221 0.527,0.651 0.43,1.608 -0.223,2.139 -0.653,0.529 -1.611,0.428 -2.137,-0.223 m -65.96,54.91 c -0.584,3.002 -3.486,4.963 -6.485,4.381 -2.998,-0.58 -4.961,-3.483 -4.381,-6.483 0.582,-2.999 3.484,-4.961 6.483,-4.379 2.998,0.581 4.961,3.484 4.383,6.481 m 2.908,-10.523 c -2.562,-0.813 -3.98,-3.547 -3.167,-6.106 0.816,-2.563 3.55,-3.978 6.111,-3.164 2.56,0.812 3.974,3.547 3.162,6.106 -0.813,2.562 -3.547,3.978 -6.106,3.164 m 89.934,-47.465 c -0.048,-0.089 -0.006,-0.198 0.084,-0.24 0.09,-0.045 0.199,-0.007 0.241,0.084 0.045,0.09 0.006,0.198 -0.084,0.241 -0.091,0.045 -0.199,0.005 -0.241,-0.085 m -12.082,0.799 c -0.394,0.249 -0.921,0.135 -1.174,-0.262 -0.25,-0.398 -0.135,-0.924 0.261,-1.174 0.398,-0.253 0.924,-0.136 1.175,0.261 0.254,0.397 0.135,0.925 -0.262,1.175 m -51.283,16.569 c 1.671,1.001 2.213,3.168 1.211,4.836 -1.003,1.67 -3.168,2.213 -4.839,1.211 -1.671,-1.002 -2.21,-3.168 -1.21,-4.837 0.999,-1.669 3.168,-2.211 4.838,-1.21 m -12.239,9.42 c 2.111,0.953 3.05,3.438 2.096,5.55 -0.951,2.11 -3.434,3.05 -5.549,2.099 -2.109,-0.955 -3.049,-3.439 -2.098,-5.551 0.954,-2.111 3.439,-3.051 5.551,-2.098 m 35.014,-19.075 c -0.864,-0.841 -0.878,-2.225 -0.035,-3.094 0.842,-0.864 2.227,-0.882 3.095,-0.035 0.864,0.841 0.882,2.226 0.035,3.095 -0.843,0.862 -2.228,0.88 -3.095,0.034 m -9.986,2.252 c 1.25,0.964 1.485,2.758 0.521,4.012 -0.963,1.249 -2.757,1.48 -4.01,0.517 -1.249,-0.964 -1.481,-2.757 -0.518,-4.007 0.963,-1.25 2.758,-1.485 4.007,-0.522 m -13.676,22.349 c 1.433,0.66 2.058,2.358 1.396,3.791 -0.66,1.433 -2.358,2.059 -3.79,1.398 -1.434,-0.661 -2.057,-2.359 -1.4,-3.793 0.662,-1.432 2.36,-2.057 3.794,-1.396 m -30.565,55.993 c 0.099,3.054 -2.294,5.612 -5.347,5.713 -3.052,0.102 -5.612,-2.292 -5.714,-5.346 -0.102,-3.054 2.294,-5.612 5.347,-5.713 3.052,-0.101 5.612,2.292 5.714,5.346 m 19.743,-45.996 c 1.849,0.604 2.862,2.596 2.256,4.448 -0.605,1.851 -2.598,2.861 -4.447,2.256 -1.851,-0.604 -2.86,-2.597 -2.258,-4.448 0.608,-1.85 2.596,-2.861 4.449,-2.256 m 57.817,-30.71 c -0.064,-0.078 -0.049,-0.193 0.03,-0.255 0.079,-0.064 0.192,-0.05 0.256,0.029 0.063,0.078 0.051,0.192 -0.027,0.253 -0.082,0.066 -0.196,0.055 -0.259,-0.027 m -12.765,3.408 c -0.334,-0.331 -0.337,-0.87 -0.006,-1.204 0.331,-0.335 0.873,-0.338 1.204,-0.003 0.334,0.327 0.337,0.866 0.006,1.201 -0.331,0.333 -0.87,0.336 -1.204,0.006 m -12.693,5.444 c -0.659,-0.518 -0.777,-1.471 -0.259,-2.132 0.518,-0.66 1.475,-0.777 2.138,-0.26 0.655,0.518 0.773,1.475 0.256,2.136 -0.519,0.658 -1.473,0.777 -2.135,0.256 m -43.865,41.929 c -2.27,-0.459 -3.739,-2.671 -3.281,-4.941 0.457,-2.273 2.673,-3.741 4.943,-3.281 2.27,0.458 3.739,2.672 3.282,4.943 -0.461,2.269 -2.674,3.739 -4.944,3.279 m 33.836,-38.157 c 1.034,0.631 1.358,1.978 0.726,3.008 -0.629,1.033 -1.975,1.357 -3.007,0.728 -1.033,-0.631 -1.358,-1.977 -0.726,-3.008 0.629,-1.032 1.975,-1.36 3.007,-0.728 m -46.002,47.976 c 0.224,-2.678 2.574,-4.667 5.25,-4.443 2.677,0.223 4.667,2.574 4.441,5.25 -0.222,2.678 -2.57,4.667 -5.251,4.443 -2.673,-0.223 -4.666,-2.575 -4.44,-5.25 m 8.74,46.007 c 0.777,2.956 -0.988,5.981 -3.941,6.761 -2.957,0.777 -5.981,-0.987 -6.759,-3.941 -0.779,-2.954 0.982,-5.981 3.938,-6.761 2.956,-0.777 5.982,0.987 6.762,3.941 m 58.611,-91.551 c -0.081,-0.063 -0.093,-0.177 -0.03,-0.258 0.06,-0.077 0.177,-0.089 0.256,-0.029 0.078,0.065 0.092,0.178 0.027,0.256 -0.061,0.08 -0.175,0.093 -0.253,0.031 m -65.993,76.769 c -0.38,-2.659 1.47,-5.122 4.13,-5.502 2.659,-0.376 5.122,1.473 5.498,4.133 0.38,2.658 -1.469,5.121 -4.128,5.499 -2.661,0.378 -5.121,-1.472 -5.5,-4.13 m 13.792,-16.525 c 0.057,2.316 -1.773,4.241 -4.092,4.298 -2.312,0.058 -4.239,-1.774 -4.296,-4.089 -0.057,-2.317 1.774,-4.24 4.092,-4.298 2.312,-0.058 4.239,1.773 4.296,4.089 m 29.384,-46.088 c -0.759,-0.358 -1.084,-1.263 -0.726,-2.024 0.355,-0.758 1.264,-1.084 2.023,-0.727 0.758,0.359 1.084,1.266 0.726,2.024 -0.358,0.759 -1.262,1.086 -2.023,0.727 m -26.702,28.314 c 1.939,0.179 3.367,1.894 3.191,3.833 -0.18,1.941 -1.896,3.368 -3.835,3.191 -1.939,-0.179 -3.366,-1.894 -3.192,-3.833 0.181,-1.941 1.897,-3.367 3.836,-3.191 m 19.144,-19.702 c -0.384,1.146 -1.628,1.762 -2.772,1.377 -1.144,-0.385 -1.764,-1.626 -1.379,-2.771 0.386,-1.147 1.626,-1.763 2.773,-1.377 1.147,0.383 1.761,1.625 1.378,2.771 m -8.598,10.994 c -0.325,1.545 -1.839,2.534 -3.386,2.207 -1.542,-0.324 -2.529,-1.842 -2.204,-3.384 0.325,-1.545 1.84,-2.534 3.384,-2.208 1.544,0.325 2.531,1.841 2.206,3.385 m 27.033,-28.842 c 0.246,-0.4 0.771,-0.522 1.174,-0.273 0.397,0.248 0.517,0.774 0.271,1.173 -0.247,0.398 -0.774,0.521 -1.174,0.271 -0.398,-0.248 -0.518,-0.773 -0.271,-1.171 m -43.004,95.61 c 2.508,-0.961 5.32,0.294 6.28,2.803 0.964,2.509 -0.295,5.32 -2.802,6.281 -2.508,0.96 -5.321,-0.294 -6.281,-2.803 -0.96,-2.508 0.292,-5.322 2.803,-6.281 m 35.123,-75.969 c 0.445,0.154 0.679,0.638 0.526,1.084 -0.154,0.444 -0.638,0.679 -1.081,0.525 -0.445,-0.151 -0.68,-0.637 -0.53,-1.081 0.156,-0.446 0.638,-0.679 1.085,-0.528 m -26.771,34.558 c -0.025,-1.578 1.234,-2.878 2.811,-2.905 1.577,-0.027 2.879,1.232 2.906,2.809 0.026,1.578 -1.232,2.879 -2.809,2.906 -1.578,0.026 -2.879,-1.234 -2.908,-2.81 m -1.35,28.558 c 0.572,2.244 -0.782,4.529 -3.028,5.1 -2.246,0.571 -4.528,-0.787 -5.099,-3.031 -0.573,-2.245 0.782,-4.528 3.028,-5.099 2.246,-0.572 4.527,0.785 5.099,3.03 m -6.828,29.53 c 2.707,-1.417 6.052,-0.37 7.467,2.336 1.415,2.708 0.37,6.051 -2.336,7.467 -2.71,1.417 -6.052,0.371 -7.466,-2.337 -1.418,-2.707 -0.374,-6.05 2.335,-7.466 m 17.89,-73.149 c 1.204,0.119 2.08,1.192 1.96,2.394 -0.121,1.206 -1.195,2.083 -2.397,1.962 -1.201,-0.12 -2.08,-1.194 -1.96,-2.397 0.121,-1.203 1.193,-2.08 2.397,-1.959 m 26.514,-26.349 c -0.09,-0.044 -0.129,-0.155 -0.083,-0.244 0.045,-0.09 0.153,-0.128 0.243,-0.086 0.09,0.045 0.126,0.153 0.084,0.244 -0.042,0.09 -0.15,0.129 -0.244,0.086 m -41.91,56.056 c -0.256,-1.929 1.099,-3.704 3.028,-3.962 1.933,-0.259 3.706,1.096 3.962,3.027 0.259,1.93 -1.096,3.704 -3.026,3.964 -1.929,0.257 -3.705,-1.098 -3.964,-3.029 m 23.471,-40.292 c 0.821,0.182 1.34,0.991 1.159,1.812 -0.178,0.82 -0.991,1.338 -1.81,1.158 -0.818,-0.181 -1.337,-0.99 -1.159,-1.811 0.18,-0.818 0.99,-1.337 1.81,-1.159 m 3.679,13.145 c 0.05,-0.467 0.469,-0.805 0.938,-0.753 0.467,0.048 0.805,0.47 0.753,0.936 -0.048,0.469 -0.47,0.806 -0.936,0.754 -0.466,-0.049 -0.804,-0.47 -0.755,-0.937 m -15.334,56.269 c -1.824,0.682 -3.856,-0.246 -4.537,-2.069 -0.681,-1.823 0.247,-3.856 2.071,-4.537 1.825,-0.682 3.854,0.246 4.534,2.07 0.684,1.824 -0.243,3.855 -2.068,4.536 m 24.058,-66.092 c 0.099,0.022 0.16,0.121 0.139,0.218 -0.025,0.1 -0.121,0.159 -0.22,0.136 -0.1,-0.021 -0.16,-0.118 -0.136,-0.218 0.021,-0.097 0.121,-0.16 0.217,-0.136 m -17.54,105.52 c 0.048,-1.134 0.543,-2.242 1.482,-3.03 0.704,-0.593 1.55,-0.902 2.405,-0.96 0.144,-0.568 0.454,-1.098 0.942,-1.499 1.217,-1.004 3.017,-0.831 4.022,0.385 1.007,1.217 0.831,3.018 -0.385,4.023 -0.078,0.066 -0.169,0.112 -0.253,0.167 0.416,1.53 -0.048,3.226 -1.34,4.311 -0.557,0.469 -1.206,0.747 -1.875,0.881 0.445,1.943 -0.154,4.06 -1.777,5.443 -2.323,1.985 -5.816,1.707 -7.797,-0.616 -1.984,-2.325 -1.711,-5.815 0.615,-7.8 1.144,-0.975 2.57,-1.398 3.961,-1.305 m -2.583,-73.778 c 1.198,-0.151 2.294,0.7 2.441,1.897 0.151,1.2 -0.7,2.296 -1.899,2.446 -1.198,0.15 -2.294,-0.7 -2.445,-1.9 -0.151,-1.2 0.702,-2.294 1.903,-2.443 m -0.602,15.422 c 0.379,1.532 -0.56,3.08 -2.089,3.457 -1.536,0.377 -3.083,-0.561 -3.459,-2.093 -0.377,-1.534 0.559,-3.08 2.091,-3.457 1.537,-0.376 3.084,0.56 3.457,2.093 m -6.238,27.594 c 1.445,-0.739 3.107,-0.545 4.344,0.337 -0.178,-1.189 0.401,-2.407 1.532,-2.975 0.799,-0.403 1.693,-0.383 2.451,-0.04 0.058,-0.497 0.332,-0.958 0.813,-1.197 0.753,-0.37 1.662,-0.06 2.035,0.694 0.368,0.753 0.061,1.664 -0.695,2.034 -0.202,0.1 -0.419,0.142 -0.629,0.149 0.451,1.328 -0.121,2.819 -1.409,3.467 -0.831,0.417 -1.765,0.38 -2.541,0.001 0.608,1.918 -0.223,4.048 -2.072,4.997 -2.065,1.057 -4.594,0.242 -5.648,-1.82 -1.059,-2.062 -0.243,-4.59 1.819,-5.647 m 12.385,-55.069 c 0.837,-0.008 1.524,0.666 1.53,1.507 0.006,0.838 -0.668,1.525 -1.506,1.532 -0.839,0.006 -1.526,-0.668 -1.532,-1.507 -0.009,-0.84 0.666,-1.527 1.508,-1.532 m -10.753,70.944 c 1.264,-0.848 2.779,-1.001 4.13,-0.588 0.012,-1.13 0.572,-2.233 1.587,-2.901 0.749,-0.493 1.614,-0.649 2.435,-0.531 0.133,-0.514 0.439,-0.989 0.922,-1.3 1.011,-0.654 2.369,-0.364 3.023,0.651 0.656,1.015 0.366,2.371 -0.651,3.027 -0.126,0.081 -0.271,0.107 -0.409,0.16 0.397,1.436 -0.133,3.023 -1.446,3.885 -0.662,0.437 -1.421,0.609 -2.155,0.561 0.433,1.907 -0.301,3.965 -2.023,5.117 -2.235,1.495 -5.253,0.898 -6.75,-1.335 -1.493,-2.23 -0.898,-5.251 1.337,-6.746 m 318.873,-51.86 c -0.078,0.042 -0.151,0.086 -0.229,0.125 0.073,0.009 0.139,0.012 0.212,0.02 0.145,0.022 0.283,0.059 0.42,0.086 -0.137,-0.066 -0.268,-0.157 -0.403,-0.231 m -1.252,-46.095 c -0.06,0.055 -0.119,0.109 -0.182,0.162 0.07,-0.007 0.137,-0.022 0.207,-0.026 0.124,-0.011 0.256,-0.003 0.384,-0.011 -0.139,-0.031 -0.271,-0.088 -0.409,-0.125 m -3.948,23.521 c -0.492,0.368 -1.014,0.7 -1.572,0.981 0.558,-0.057 1.126,-0.091 1.703,-0.067 0.934,0.038 1.823,0.197 2.686,0.441 0.174,-0.149 0.355,-0.289 0.541,-0.429 -1.176,-0.147 -2.302,-0.465 -3.358,-0.926 m -6.534,22.197 c -1.712,1.071 -3.751,1.652 -5.92,1.544 -2.223,-0.111 -4.239,-0.933 -5.851,-2.224 -1.622,1.221 -3.661,1.895 -5.85,1.769 -2.377,-0.138 -4.483,-1.21 -5.988,-2.831 -1.477,1.461 -3.536,2.328 -5.776,2.179 -2.644,-0.176 -4.871,-1.7 -6.077,-3.855 -1.167,1.943 -3.34,3.183 -5.754,3.002 -3.414,-0.256 -5.976,-3.231 -5.72,-6.647 0.258,-3.415 3.231,-5.977 6.645,-5.72 1.91,0.142 3.53,1.151 4.56,2.595 1.264,-2.778 4.124,-4.634 7.345,-4.419 1.57,0.104 2.987,0.681 4.138,1.579 1.723,-2.335 4.549,-3.786 7.661,-3.605 1.333,0.076 2.574,0.453 3.675,1.045 1.982,-2.143 4.868,-3.43 8.009,-3.271 1.13,0.055 2.201,0.298 3.197,0.687 0.827,-0.773 1.766,-1.428 2.789,-1.933 -0.103,0.01 -0.204,0.03 -0.31,0.035 -2.166,0.145 -4.225,-0.364 -5.989,-1.344 -1.537,1.319 -3.486,2.173 -5.664,2.298 -2.298,0.133 -4.459,-0.557 -6.18,-1.82 -1.407,1.494 -3.355,2.475 -5.563,2.585 -2.493,0.124 -4.754,-0.903 -6.347,-2.583 -1.167,1.815 -3.162,3.059 -5.486,3.156 -2.991,0.125 -5.587,-1.699 -6.64,-4.331 -0.386,2.589 -2.566,4.619 -5.276,4.711 -3.054,0.1 -5.611,-2.292 -5.712,-5.347 -0.104,-3.053 2.29,-5.611 5.346,-5.713 2.277,-0.075 4.282,1.241 5.19,3.184 0.313,-3.373 3.048,-6.089 6.524,-6.233 1.731,-0.072 3.322,0.528 4.573,1.533 1.241,-2.678 3.858,-4.614 7.008,-4.772 1.456,-0.071 2.819,0.27 4.035,0.875 1.603,-2.438 4.285,-4.119 7.419,-4.303 1.237,-0.07 2.433,0.102 3.539,0.47 1.845,-2.307 4.6,-3.87 7.775,-4.083 1.037,-0.067 2.046,0.019 3.012,0.227 0.404,-0.449 0.841,-0.87 1.312,-1.255 -1.652,0.122 -3.257,-0.121 -4.737,-0.653 -1.431,1.431 -3.298,2.458 -5.441,2.836 -2.204,0.389 -4.361,0.031 -6.23,-0.877 -1.311,1.559 -3.157,2.68 -5.322,3.044 -2.369,0.396 -4.668,-0.186 -6.498,-1.447 -1.119,1.767 -2.933,3.08 -5.162,3.434 -2.636,0.419 -5.16,-0.592 -6.809,-2.448 -0.699,2.175 -2.554,3.889 -4.962,4.253 -3.387,0.511 -6.545,-1.82 -7.057,-5.208 -0.511,-3.387 1.826,-6.547 5.21,-7.056 1.907,-0.288 3.732,0.35 5.062,1.552 0.596,-3.007 2.983,-5.473 6.185,-5.983 1.566,-0.25 3.087,0.007 4.414,0.638 1.157,-2.671 3.595,-4.724 6.68,-5.243 1.327,-0.222 2.632,-0.13 3.849,0.212 1.458,-2.539 3.985,-4.439 7.093,-4.986 1.12,-0.199 2.235,-0.197 3.307,-0.035 0.62,-0.925 1.38,-1.764 2.248,-2.477 -0.09,0.029 -0.177,0.065 -0.265,0.092 -2.092,0.627 -4.219,0.587 -6.172,0.016 -1.2,1.634 -2.919,2.908 -5.017,3.518 -2.225,0.643 -4.492,0.444 -6.46,-0.412 -1.037,1.777 -2.73,3.178 -4.86,3.779 -2.421,0.68 -4.867,0.172 -6.796,-1.128 -0.731,2.044 -2.404,3.715 -4.66,4.328 -2.929,0.796 -5.903,-0.445 -7.5,-2.84 0.252,2.65 -1.421,5.173 -4.082,5.873 -2.953,0.777 -5.978,-0.987 -6.758,-3.943 -0.78,-2.953 0.983,-5.979 3.94,-6.757 2.239,-0.592 4.519,0.287 5.828,2.033 -0.495,-3.392 1.572,-6.697 4.963,-7.621 1.685,-0.461 3.386,-0.225 4.842,0.494 0.601,-2.901 2.725,-5.384 5.775,-6.24 1.412,-0.397 2.829,-0.365 4.156,-0.038 1.019,-2.74 3.266,-4.984 6.287,-5.861 1.206,-0.35 2.42,-0.443 3.592,-0.329 1.281,-2.664 3.624,-4.808 6.682,-5.724 1.006,-0.3 2.024,-0.44 3.022,-0.45 0.288,-0.52 0.615,-1.018 0.98,-1.493 -1.586,0.487 -3.213,0.606 -4.786,0.409 -1.075,1.724 -2.665,3.148 -4.685,4 -2.069,0.872 -4.262,1.001 -6.298,0.522 -0.929,1.821 -2.48,3.334 -4.521,4.174 -2.229,0.918 -4.619,0.856 -6.693,0.022 -0.693,1.982 -2.172,3.679 -4.273,4.523 -2.497,1.002 -5.194,0.564 -7.223,-0.9 -0.182,2.292 -1.613,4.397 -3.896,5.294 -3.188,1.251 -6.79,-0.318 -8.039,-3.507 -1.251,-3.188 0.318,-6.788 3.507,-8.037 1.817,-0.715 3.754,-0.486 5.327,0.411 -0.104,-3.078 1.674,-6.033 4.695,-7.249 1.482,-0.596 3.042,-0.679 4.486,-0.347 0.525,-2.874 2.449,-5.43 5.351,-6.626 1.257,-0.517 2.561,-0.716 3.839,-0.65 0.848,-2.806 2.891,-5.226 5.804,-6.455 1.065,-0.449 2.162,-0.692 3.252,-0.771 0.395,-1.028 0.939,-1.998 1.614,-2.881 -0.071,0.047 -0.139,0.094 -0.213,0.135 -1.909,1.078 -4.004,1.515 -6.038,1.386 -0.806,1.872 -2.205,3.503 -4.122,4.57 -2.033,1.127 -4.302,1.432 -6.42,1.028 -0.61,1.977 -1.951,3.726 -3.91,4.793 -2.215,1.206 -4.732,1.251 -6.908,0.398 -0.251,2.168 -1.514,4.186 -3.585,5.288 -2.718,1.45 -5.944,0.866 -8.028,-1.181 0.9,2.553 -0.166,5.441 -2.631,6.731 -2.71,1.417 -6.051,0.372 -7.47,-2.337 -1.414,-2.706 -0.371,-6.051 2.339,-7.465 2.089,-1.095 4.554,-0.708 6.222,0.767 -1.31,-3.218 -0.038,-6.962 3.093,-8.638 1.558,-0.83 3.281,-0.974 4.873,-0.583 -0.068,-2.972 1.455,-5.876 4.244,-7.396 1.3,-0.708 2.706,-0.991 4.089,-0.964 0.372,-2.905 2.064,-5.603 4.823,-7.133 1.108,-0.614 2.282,-0.98 3.469,-1.124 0.649,-2.888 2.459,-5.505 5.236,-7.079 0.928,-0.523 1.897,-0.892 2.884,-1.122 0.163,-0.561 0.367,-1.115 0.609,-1.648 -1.441,0.828 -3.008,1.303 -4.589,1.46 -0.664,1.93 -1.901,3.679 -3.684,4.962 -1.847,1.326 -3.982,1.938 -6.094,1.909 -0.492,1.99 -1.642,3.827 -3.449,5.102 -1.981,1.401 -4.34,1.867 -6.556,1.502 -0.226,2.102 -1.296,4.098 -3.17,5.395 -2.217,1.542 -4.97,1.705 -7.283,0.705 0.355,2.288 -0.574,4.685 -2.614,6.077 -2.831,1.929 -6.688,1.196 -8.619,-1.633 -1.926,-2.831 -1.196,-6.687 1.634,-8.616 1.626,-1.108 3.587,-1.313 5.334,-0.769 -0.803,-2.989 0.266,-6.282 2.958,-8.148 1.323,-0.922 2.844,-1.347 4.346,-1.335 -0.138,-2.929 1.157,-5.863 3.728,-7.677 1.121,-0.792 2.361,-1.255 3.631,-1.472 0.191,-2.938 1.649,-5.776 4.227,-7.626 0.95,-0.685 1.977,-1.17 3.036,-1.486 0.154,-1.076 0.46,-2.124 0.91,-3.125 -0.052,0.049 -0.098,0.104 -0.152,0.155 -1.63,1.483 -3.586,2.378 -5.613,2.702 -0.367,2.01 -1.366,3.925 -3.009,5.394 -1.738,1.56 -3.891,2.358 -6.059,2.433 -0.152,2.069 -1.072,4.089 -2.752,5.57 -1.902,1.68 -4.36,2.281 -6.682,1.92 0.251,2.18 -0.535,4.444 -2.32,5.987 -2.349,2.042 -5.678,2.173 -8.176,0.582 1.507,2.294 1.132,5.395 -1.012,7.226 -2.323,1.984 -5.816,1.71 -7.797,-0.614 -1.988,-2.325 -1.711,-5.817 0.612,-7.804 1.826,-1.553 4.361,-1.699 6.331,-0.574 -2.06,-2.852 -1.668,-6.841 1.042,-9.193 1.34,-1.166 3.008,-1.691 4.651,-1.656 -0.733,-2.889 0.102,-6.071 2.493,-8.183 1.12,-0.988 2.44,-1.581 3.806,-1.855 -0.288,-2.922 0.76,-5.937 3.114,-8.048 0.95,-0.854 2.03,-1.477 3.164,-1.879 -0.007,-2.97 1.171,-5.929 3.534,-8.089 0.797,-0.723 1.671,-1.306 2.593,-1.752 0.036,-0.573 0.111,-1.145 0.226,-1.716 -1.232,1.137 -2.659,1.953 -4.173,2.451 -0.216,2.035 -1.034,4.029 -2.489,5.68 -1.513,1.714 -3.469,2.786 -5.548,3.226 -0.034,2.061 -0.745,4.111 -2.231,5.768 -1.626,1.812 -3.838,2.799 -6.095,2.927 0.26,2.107 -0.335,4.301 -1.877,5.991 -1.837,2.011 -4.506,2.775 -6.993,2.298 0.873,2.162 0.505,4.724 -1.186,6.543 -2.329,2.513 -6.249,2.66 -8.76,0.329 -2.512,-2.331 -2.658,-6.253 -0.332,-8.765 1.356,-1.457 3.245,-2.092 5.082,-1.935 -1.469,-2.735 -1.168,-6.208 1.048,-8.635 1.102,-1.204 2.505,-1.952 3.988,-2.271 -0.801,-2.829 -0.193,-5.989 1.911,-8.337 0.929,-1.037 2.05,-1.764 3.254,-2.259 -0.475,-2.914 0.314,-6.009 2.42,-8.393 0.782,-0.889 1.686,-1.596 2.663,-2.144 -0.093,-1.065 -0.027,-2.143 0.179,-3.204 -0.035,0.051 -0.062,0.107 -0.096,0.157 -1.263,1.821 -2.986,3.132 -4.902,3.897 0.096,2.052 -0.454,4.148 -1.73,5.952 -1.355,1.918 -3.292,3.18 -5.399,3.727 0.326,2.062 -0.126,4.245 -1.44,6.073 -1.485,2.07 -3.762,3.201 -6.123,3.359 0.745,2.075 0.477,4.473 -0.92,6.383 -1.861,2.546 -5.142,3.407 -7.954,2.347 2.053,1.897 2.404,5.057 0.701,7.345 -1.828,2.452 -5.288,2.96 -7.741,1.138 -2.45,-1.826 -2.959,-5.292 -1.133,-7.743 1.455,-1.959 3.959,-2.652 6.156,-1.928 -2.724,-2.31 -3.259,-6.345 -1.117,-9.269 1.057,-1.448 2.578,-2.337 4.21,-2.664 -1.37,-2.655 -1.273,-5.958 0.592,-8.553 0.886,-1.224 2.052,-2.104 3.334,-2.675 -0.939,-2.788 -0.585,-5.968 1.241,-8.556 0.748,-1.054 1.668,-1.909 2.699,-2.559 -0.676,-2.895 -0.186,-6.048 1.642,-8.684 0.624,-0.895 1.355,-1.666 2.169,-2.312 -0.093,-0.558 -0.144,-1.124 -0.164,-1.693 -0.952,1.388 -2.171,2.5 -3.547,3.324 0.253,2.044 -0.1,4.173 -1.159,6.119 -1.09,2.006 -2.761,3.485 -4.69,4.375 0.433,2.026 0.171,4.206 -0.911,6.156 -1.192,2.144 -3.137,3.604 -5.324,4.228 0.728,1.997 0.639,4.283 -0.493,6.279 -1.35,2.386 -3.803,3.72 -6.352,3.795 1.354,1.915 1.575,4.521 0.323,6.684 -1.711,2.965 -5.506,3.984 -8.472,2.272 -2.964,-1.714 -3.979,-5.507 -2.268,-8.472 1.006,-1.741 2.731,-2.785 4.578,-3.025 -2.066,-2.342 -2.554,-5.811 -0.931,-8.685 0.812,-1.428 2.023,-2.472 3.408,-3.108 -1.418,-2.587 -1.527,-5.817 0.007,-8.584 0.68,-1.224 1.614,-2.216 2.691,-2.964 -1.108,-2.737 -1.029,-5.929 0.495,-8.723 0.571,-1.048 1.306,-1.947 2.149,-2.704 -0.324,-1.007 -0.507,-2.054 -0.541,-3.118 -0.019,0.049 -0.03,0.101 -0.052,0.149 -0.832,2.066 -2.225,3.733 -3.934,4.909 0.556,1.981 0.487,4.154 -0.356,6.208 -0.901,2.179 -2.516,3.846 -4.461,4.845 0.783,1.943 0.829,4.184 -0.041,6.266 -1.001,2.366 -2.987,3.982 -5.27,4.651 1.205,1.864 1.491,4.269 0.547,6.461 -1.268,2.933 -4.331,4.511 -7.349,4.046 2.49,1.368 3.58,4.41 2.41,7.057 -1.231,2.794 -4.496,4.061 -7.295,2.83 -2.794,-1.233 -4.06,-4.5 -2.825,-7.297 0.999,-2.272 3.347,-3.504 5.689,-3.237 -3.235,-1.617 -4.698,-5.48 -3.251,-8.842 0.721,-1.662 2.024,-2.878 3.558,-3.553 -1.948,-2.285 -2.591,-5.536 -1.349,-8.493 0.593,-1.4 1.549,-2.525 2.691,-3.371 -1.545,-2.514 -1.916,-5.699 -0.708,-8.632 0.499,-1.211 1.217,-2.259 2.084,-3.126 -1.308,-2.672 -1.531,-5.863 -0.332,-8.845 0.408,-1.022 0.963,-1.948 1.619,-2.764 -0.213,-0.516 -0.389,-1.047 -0.53,-1.585 -0.626,1.569 -1.57,2.926 -2.734,4.037 0.708,1.939 0.838,4.105 0.239,6.243 -0.622,2.209 -1.929,4.035 -3.62,5.33 0.878,1.885 1.112,4.075 0.486,6.23 -0.685,2.369 -2.277,4.227 -4.282,5.318 1.17,1.796 1.598,4.054 0.932,6.263 -0.788,2.638 -2.904,4.497 -5.394,5.123 1.772,1.563 2.576,4.073 1.837,6.476 -1.013,3.275 -4.484,5.11 -7.754,4.098 -3.273,-1.009 -5.106,-4.481 -4.1,-7.756 0.602,-1.935 2.071,-3.347 3.838,-3.986 -2.553,-1.823 -3.815,-5.107 -2.866,-8.278 0.47,-1.592 1.437,-2.884 2.66,-3.82 -1.971,-2.203 -2.802,-5.341 -1.918,-8.39 0.392,-1.357 1.091,-2.538 1.984,-3.512 -1.696,-2.427 -2.331,-5.558 -1.47,-8.629 0.33,-1.162 0.852,-2.212 1.516,-3.143 -0.531,-0.897 -0.936,-1.86 -1.211,-2.872 -0.005,0.04 -0.007,0.081 -0.013,0.119 -0.354,2.212 -1.347,4.159 -2.762,5.687 0.99,1.81 1.409,3.954 1.042,6.153 -0.391,2.334 -1.608,4.328 -3.298,5.737 1.208,1.722 1.762,3.908 1.369,6.143 -0.451,2.544 -2.04,4.573 -4.137,5.732 1.605,1.545 2.431,3.842 1.994,6.195 -0.585,3.18 -3.276,5.42 -6.366,5.591 2.786,0.743 4.573,3.501 4.015,6.374 -0.58,2.998 -3.482,4.961 -6.48,4.379 -3.003,-0.581 -4.962,-3.482 -4.386,-6.482 0.482,-2.476 2.547,-4.22 4.943,-4.437 -3.571,-0.813 -5.906,-4.288 -5.237,-7.922 0.332,-1.796 1.342,-3.284 2.71,-4.283 -2.421,-1.795 -3.781,-4.828 -3.222,-7.996 0.265,-1.512 0.956,-2.837 1.892,-3.92 -2.073,-2.105 -3.15,-5.135 -2.625,-8.273 0.218,-1.3 0.69,-2.494 1.357,-3.541 -1.877,-2.318 -2.81,-5.382 -2.304,-8.557 0.175,-1.103 0.511,-2.143 0.982,-3.092 -0.318,-0.447 -0.601,-0.917 -0.863,-1.405 -0.258,1.674 -0.884,3.217 -1.773,4.566 1.123,1.732 1.739,3.822 1.629,6.05 -0.114,2.304 -0.992,4.383 -2.364,6.026 1.284,1.646 2.011,3.738 1.877,5.985 -0.144,2.476 -1.291,4.649 -3.021,6.161 1.552,1.49 2.486,3.605 2.331,5.918 -0.186,2.767 -1.856,5.057 -4.165,6.213 2.096,1.127 3.455,3.404 3.266,5.932 -0.256,3.413 -3.234,5.976 -6.648,5.721 -3.414,-0.258 -5.974,-3.233 -5.718,-6.646 0.151,-2.043 1.286,-3.763 2.894,-4.774 -2.916,-1.198 -4.894,-4.127 -4.673,-7.445 0.111,-1.668 0.771,-3.158 1.77,-4.342 -2.427,-1.708 -3.941,-4.591 -3.76,-7.772 0.081,-1.423 0.506,-2.744 1.173,-3.901 -2.198,-1.99 -3.523,-4.905 -3.363,-8.096 0.063,-1.219 0.343,-2.373 0.792,-3.437 -0.713,-0.742 -1.314,-1.58 -1.804,-2.486 0.002,0.03 0.008,0.06 0.008,0.09 0.149,2.245 -0.392,4.372 -1.441,6.184 1.382,1.547 2.274,3.552 2.402,5.781 0.139,2.384 -0.615,4.606 -1.958,6.357 1.572,1.412 2.605,3.428 2.719,5.703 0.132,2.595 -0.982,4.938 -2.787,6.537 1.925,1.145 3.256,3.205 3.353,5.608 0.139,3.272 -2.04,6.094 -5.076,6.912 2.933,0.044 5.349,2.366 5.443,5.326 0.104,3.056 -2.288,5.613 -5.341,5.714 -3.056,0.101 -5.614,-2.291 -5.712,-5.344 -0.089,-2.567 1.595,-4.763 3.943,-5.469 -3.714,0.069 -6.828,-2.831 -6.984,-6.566 -0.077,-1.836 0.59,-3.526 1.709,-4.807 -2.767,-1.206 -4.78,-3.871 -4.94,-7.092 -0.078,-1.548 0.305,-3.001 0.986,-4.274 -2.497,-1.592 -4.228,-4.312 -4.412,-7.495 -0.079,-1.328 0.123,-2.609 0.545,-3.79 -2.351,-1.837 -3.95,-4.624 -4.161,-7.841 -0.078,-1.129 0.026,-2.228 0.275,-3.266 -0.404,-0.36 -0.78,-0.748 -1.132,-1.157 0.113,1.698 -0.155,3.347 -0.733,4.862 1.493,1.444 2.566,3.351 2.957,5.554 0.404,2.281 0.004,4.517 -0.981,6.43 1.631,1.317 2.811,3.204 3.183,5.433 0.412,2.457 -0.233,4.842 -1.594,6.705 1.857,1.108 3.247,2.971 3.614,5.269 0.439,2.757 -0.699,5.377 -2.72,7.02 2.319,0.609 4.17,2.544 4.55,5.066 0.512,3.386 -1.819,6.545 -5.209,7.057 -3.384,0.511 -6.545,-1.821 -7.057,-5.207 -0.306,-2.044 0.434,-3.994 1.801,-5.344 -3.128,-0.498 -5.732,-2.919 -6.257,-6.222 -0.264,-1.665 0.061,-3.272 0.784,-4.66 -2.758,-1.124 -4.89,-3.599 -5.42,-6.746 -0.238,-1.421 -0.114,-2.819 0.286,-4.103 -2.594,-1.448 -4.543,-3.999 -5.096,-7.153 -0.217,-1.215 -0.193,-2.416 0.011,-3.563 -0.843,-0.558 -1.607,-1.23 -2.282,-1.986 0.007,0.016 0.012,0.036 0.019,0.057 0.649,2.162 0.59,4.374 -0.043,6.379 1.704,1.203 3.026,2.963 3.653,5.117 0.668,2.302 0.42,4.65 -0.512,6.666 1.859,1.024 3.326,2.758 3.947,4.965 0.71,2.514 0.132,5.065 -1.289,7.029 2.147,0.681 3.919,2.397 4.555,4.734 0.869,3.197 -0.666,6.478 -3.512,7.923 2.907,-0.672 5.836,1.066 6.6,3.969 0.781,2.954 -0.984,5.979 -3.94,6.757 -2.953,0.781 -5.98,-0.984 -6.759,-3.939 -0.665,-2.524 0.533,-5.082 2.733,-6.269 -3.645,0.965 -7.387,-1.184 -8.377,-4.83 -0.489,-1.79 -0.215,-3.6 0.614,-5.106 -2.981,-0.553 -5.55,-2.708 -6.425,-5.824 -0.425,-1.503 -0.374,-3.021 0.02,-4.419 -2.796,-0.991 -5.096,-3.263 -5.987,-6.333 -0.376,-1.29 -0.464,-2.593 -0.304,-3.853 -2.713,-1.265 -4.899,-3.632 -5.823,-6.726 -0.329,-1.095 -0.473,-2.198 -0.456,-3.285 -0.468,-0.256 -0.914,-0.545 -1.342,-0.858 0.488,1.636 0.591,3.312 0.361,4.922 1.786,1.077 3.264,2.701 4.137,4.769 0.903,2.146 1.012,4.426 0.467,6.522 1.894,0.919 3.471,2.497 4.336,4.597 0.954,2.315 0.851,4.798 -0.079,6.925 2.068,0.662 3.85,2.171 4.724,4.344 1.047,2.602 0.511,5.432 -1.117,7.483 2.41,0.066 4.669,1.546 5.608,3.937 1.253,3.187 -0.319,6.784 -3.508,8.036 -3.187,1.255 -6.789,-0.317 -8.038,-3.507 -0.761,-1.942 -0.466,-4.031 0.595,-5.65 -3.18,0.223 -6.274,-1.559 -7.527,-4.672 -0.633,-1.577 -0.672,-3.236 -0.26,-4.764 -2.95,-0.47 -5.593,-2.407 -6.815,-5.378 -0.551,-1.341 -0.744,-2.742 -0.633,-4.099 -2.853,-0.825 -5.328,-2.884 -6.575,-5.841 -0.488,-1.149 -0.731,-2.337 -0.783,-3.516 -0.933,-0.347 -1.816,-0.818 -2.631,-1.397 0.006,0.011 0.012,0.018 0.015,0.024 1.117,1.976 1.551,4.154 1.376,6.258 1.933,0.793 3.625,2.219 4.721,4.188 1.168,2.11 1.444,4.465 0.975,6.653 2.054,0.577 3.881,1.945 4.979,3.963 1.259,2.31 1.259,4.944 0.289,7.185 2.258,0.177 4.387,1.449 5.534,3.599 1.729,3.235 0.581,7.215 -2.523,9.092 0.235,-0.173 0.469,-0.342 0.732,-0.482 2.706,-1.415 6.048,-0.369 7.465,2.337 1.419,2.71 0.371,6.051 -2.338,7.466 -2.704,1.42 -6.049,0.37 -7.467,-2.334 -1.234,-2.367 -0.593,-5.216 1.397,-6.845 -0.035,0.019 -0.06,0.046 -0.093,0.062 -3.345,1.788 -7.508,0.522 -9.294,-2.825 -0.882,-1.65 -1.014,-3.496 -0.53,-5.157 -3.034,0.139 -6.033,-1.397 -7.586,-4.246 -0.753,-1.385 -1.042,-2.89 -0.964,-4.356 -2.956,-0.34 -5.713,-2.04 -7.268,-4.843 -0.659,-1.188 -1.032,-2.45 -1.155,-3.721 -2.933,-0.632 -5.595,-2.451 -7.19,-5.266 -0.569,-1.007 -0.957,-2.063 -1.18,-3.138 -0.506,-0.141 -0.994,-0.323 -1.478,-0.528 0.846,1.495 1.315,3.108 1.445,4.74 1.99,0.65 3.802,1.901 5.115,3.732 1.373,1.91 1.981,4.132 1.906,6.312 2.055,0.473 3.965,1.641 5.277,3.502 1.451,2.056 1.891,4.514 1.448,6.806 2.18,0.168 4.269,1.246 5.616,3.186 1.612,2.322 1.703,5.226 0.544,7.598 2.381,-0.5 4.937,0.441 6.392,2.571 1.932,2.829 1.201,6.689 -1.629,8.618 -2.83,1.933 -6.687,1.202 -8.617,-1.627 -1.186,-1.741 -1.357,-3.865 -0.665,-5.697 -3.059,0.945 -6.491,-0.103 -8.415,-2.87 -0.981,-1.414 -1.381,-3.043 -1.309,-4.641 -2.986,0.207 -6.009,-1.074 -7.863,-3.702 -0.85,-1.2 -1.316,-2.538 -1.506,-3.895 -2.987,-0.16 -5.883,-1.615 -7.762,-4.231 -0.737,-1.029 -1.246,-2.142 -1.556,-3.292 -0.973,-0.128 -1.924,-0.381 -2.833,-0.754 1.535,1.685 2.438,3.72 2.734,5.822 2.07,0.337 4.046,1.355 5.557,3.039 1.62,1.804 2.414,4.054 2.433,6.303 2.137,0.099 4.239,1.02 5.768,2.753 1.749,1.988 2.336,4.57 1.873,6.986 2.252,-0.342 4.624,0.422 6.226,2.27 2.486,2.867 2.179,7.203 -0.686,9.689 -2.864,2.487 -7.202,2.183 -9.689,-0.685 -1.234,-1.422 -1.779,-3.209 -1.665,-4.95 -2.935,0.821 -6.213,-0.004 -8.366,-2.447 -1.054,-1.191 -1.674,-2.606 -1.918,-4.07 -2.965,0.338 -6.036,-0.71 -8.184,-3.1 -0.918,-1.018 -1.564,-2.182 -1.965,-3.41 -3.004,0.043 -6.015,-1.136 -8.201,-3.534 -0.785,-0.86 -1.403,-1.817 -1.863,-2.829 -0.515,-0.024 -1.027,-0.09 -1.532,-0.177 1.155,1.274 1.977,2.753 2.465,4.321 2.092,0.185 4.145,1.005 5.843,2.502 1.77,1.567 2.86,3.608 3.267,5.762 2.119,-0.006 4.249,0.712 5.949,2.237 1.885,1.689 2.858,4.01 2.923,6.352 2.174,-0.329 4.468,0.256 6.217,1.85 2.105,1.921 2.836,4.755 2.213,7.344 2.219,-1.043 4.937,-0.709 6.846,1.06 2.511,2.33 2.656,6.256 0.325,8.767 -2.327,2.51 -6.249,2.654 -8.761,0.324 -1.556,-1.441 -2.197,-3.498 -1.914,-5.448 -2.773,1.623 -6.371,1.372 -8.872,-0.91 -1.283,-1.168 -2.039,-2.684 -2.316,-4.276 -2.872,0.88 -6.117,0.305 -8.52,-1.85 -1.102,-0.99 -1.858,-2.202 -2.342,-3.499 -2.957,0.517 -6.108,-0.255 -8.532,-2.393 -0.958,-0.844 -1.705,-1.832 -2.264,-2.898 -0.964,0.092 -1.936,0.058 -2.896,-0.092 1.872,1.302 3.203,3.092 3.952,5.079 2.105,-0.136 4.266,0.417 6.124,1.727 1.99,1.407 3.27,3.439 3.779,5.637 2.119,-0.385 4.38,0.042 6.268,1.397 2.158,1.553 3.305,3.965 3.377,6.432 2.129,-0.85 4.625,-0.636 6.609,0.818 3.062,2.24 3.73,6.54 1.49,9.598 -2.243,3.065 -6.539,3.731 -9.604,1.49 -1.532,-1.123 -2.463,-2.759 -2.733,-4.499 -2.683,1.467 -6.073,1.395 -8.725,-0.508 -1.301,-0.938 -2.228,-2.192 -2.788,-3.577 -2.821,0.994 -6.061,0.662 -8.689,-1.195 -1.132,-0.798 -2.029,-1.803 -2.691,-2.917 -2.926,0.716 -6.13,0.234 -8.797,-1.619 -0.976,-0.675 -1.795,-1.482 -2.472,-2.373 -0.497,0.09 -1.003,0.139 -1.511,0.166 1.417,0.991 2.55,2.254 3.375,3.687 2.089,-0.289 4.284,0.053 6.277,1.139 2.08,1.132 3.598,2.884 4.47,4.895 2.074,-0.485 4.324,-0.242 6.335,0.873 2.222,1.235 3.7,3.288 4.281,5.572 2.048,-0.813 4.422,-0.755 6.488,0.412 2.502,1.42 3.848,4.047 3.79,6.733 1.933,-1.537 4.682,-1.836 6.952,-0.527 2.965,1.713 3.983,5.507 2.269,8.472 -1.712,2.966 -5.503,3.983 -8.468,2.27 -1.858,-1.072 -2.951,-2.96 -3.089,-4.947 -2.342,2.225 -5.926,2.794 -8.882,1.121 -1.517,-0.858 -2.594,-2.174 -3.215,-3.667 -2.613,1.506 -5.919,1.651 -8.749,0.081 -1.306,-0.726 -2.354,-1.737 -3.119,-2.905 -2.757,1.156 -6,1.099 -8.833,-0.446 -1.132,-0.615 -2.089,-1.42 -2.878,-2.343 -0.903,0.295 -1.845,0.481 -2.8,0.552 2.113,0.865 3.809,2.314 4.974,4.09 2.029,-0.61 4.269,-0.556 6.379,0.314 2.267,0.934 3.971,2.641 4.956,4.684 1.984,-0.854 4.293,-0.948 6.443,-0.043 2.465,1.041 4.13,3.154 4.741,5.562 1.885,-1.318 4.381,-1.678 6.651,-0.698 3.483,1.502 5.09,5.546 3.586,9.028 -1.5,3.485 -5.543,5.091 -9.027,3.588 -1.761,-0.759 -3.034,-2.166 -3.678,-3.82 -2.292,2.048 -5.631,2.739 -8.65,1.467 -1.491,-0.629 -2.683,-1.656 -3.538,-2.893 -2.532,1.605 -5.771,2.003 -8.751,0.777 -1.292,-0.534 -2.4,-1.321 -3.297,-2.273 -2.697,1.357 -5.937,1.605 -8.96,0.389 -1.108,-0.447 -2.095,-1.06 -2.962,-1.789 -0.458,0.193 -0.934,0.355 -1.412,0.494 1.611,0.652 3.001,1.641 4.124,2.86 1.978,-0.754 4.2,-0.912 6.395,-0.296 2.288,0.644 4.166,2.024 5.47,3.805 1.914,-0.945 4.173,-1.211 6.386,-0.568 2.456,0.712 4.362,2.399 5.434,4.512 1.819,-1.261 4.158,-1.742 6.443,-1.058 2.776,0.831 4.681,3.124 5.205,5.78 1.538,-1.959 4.17,-2.883 6.693,-2.105 3.272,1.01 5.106,4.481 4.097,7.753 -1.009,3.274 -4.482,5.109 -7.752,4.098 -2.072,-0.639 -3.558,-2.261 -4.125,-4.196 -1.779,2.721 -5.166,4.094 -8.442,3.115 -1.682,-0.505 -3.034,-1.564 -3.974,-2.898 -2.209,2.065 -5.413,2.95 -8.528,2.045 -1.449,-0.418 -2.707,-1.178 -3.716,-2.162 -2.435,1.749 -5.612,2.42 -8.722,1.542 -1.252,-0.35 -2.378,-0.931 -3.359,-1.667 -0.807,0.488 -1.668,0.875 -2.571,1.155 2.255,0.377 4.226,1.421 5.756,2.896 1.849,-1.054 4.052,-1.503 6.313,-1.123 2.43,0.405 4.48,1.704 5.898,3.495 1.746,-1.29 3.986,-1.903 6.292,-1.496 2.652,0.467 4.756,2.173 5.883,4.406 1.544,-1.724 3.908,-2.642 6.352,-2.19 3.731,0.691 6.196,4.275 5.504,8.005 -0.687,3.731 -4.273,6.196 -8.003,5.507 -1.902,-0.352 -3.464,-1.458 -4.459,-2.947 -1.773,2.525 -4.885,3.955 -8.128,3.386 -1.604,-0.286 -3.008,-1.029 -4.125,-2.059 -2.11,2.137 -5.187,3.251 -8.372,2.717 -1.391,-0.231 -2.655,-0.762 -3.752,-1.502 -2.326,1.932 -5.437,2.898 -8.658,2.384 -1.192,-0.19 -2.303,-0.575 -3.318,-1.104 -0.397,0.288 -0.819,0.547 -1.246,0.786 1.722,0.282 3.305,0.942 4.673,1.887 1.764,-1.182 3.902,-1.837 6.186,-1.723 2.388,0.119 4.537,1.055 6.206,2.513 1.661,-1.355 3.811,-2.127 6.123,-1.991 2.565,0.148 4.805,1.382 6.323,3.22 1.493,-1.651 3.675,-2.651 6.068,-2.489 2.912,0.192 5.293,2.029 6.386,4.53 1.053,-2.28 3.423,-3.788 6.072,-3.59 3.417,0.257 5.979,3.232 5.724,6.648 -0.256,3.415 -3.23,5.977 -6.648,5.72 -2.182,-0.162 -4.007,-1.441 -4.976,-3.229 -1.117,3.074 -4.131,5.193 -7.557,4.963 -1.77,-0.117 -3.333,-0.86 -4.548,-1.966 -1.696,2.514 -4.628,4.104 -7.879,3.915 -1.518,-0.089 -2.927,-0.556 -4.138,-1.302 -1.986,2.255 -4.94,3.622 -8.173,3.46 -1.313,-0.066 -2.55,-0.384 -3.679,-0.893 -0.666,0.647 -1.406,1.211 -2.21,1.682 2.279,-0.13 4.438,0.454 6.253,1.56 1.568,-1.45 3.631,-2.385 5.925,-2.521 2.475,-0.144 4.775,0.676 6.557,2.121 1.415,-1.658 3.469,-2.765 5.82,-2.883 2.706,-0.133 5.151,1.075 6.744,3.021 1.119,-2.042 3.224,-3.476 5.722,-3.58 3.788,-0.158 6.992,2.788 7.148,6.578 0.156,3.79 -2.788,6.993 -6.578,7.15 -1.948,0.081 -3.731,-0.664 -5.031,-1.915 -1.162,2.875 -3.89,4.977 -7.189,5.142 -1.641,0.081 -3.188,-0.336 -4.514,-1.105 -1.58,2.562 -4.338,4.342 -7.568,4.53 -1.421,0.083 -2.782,-0.159 -4.025,-0.645 -1.84,2.409 -4.661,4.048 -7.924,4.266 -1.217,0.081 -2.397,-0.052 -3.517,-0.348 -0.315,0.364 -0.662,0.704 -1.017,1.029 1.746,-0.109 3.444,0.187 4.995,0.813 1.456,-1.556 3.404,-2.677 5.662,-3.076 2.367,-0.417 4.679,0.022 6.639,1.085 1.315,-1.703 3.248,-2.94 5.542,-3.326 2.547,-0.427 5.016,0.285 6.909,1.755 1.088,-1.954 3.002,-3.425 5.381,-3.804 2.902,-0.461 5.654,0.818 7.267,3.041 0.506,-2.477 2.487,-4.501 5.13,-4.898 3.391,-0.511 6.546,1.822 7.058,5.207 0.511,3.387 -1.819,6.546 -5.209,7.055 -2.183,0.331 -4.261,-0.532 -5.605,-2.087 -0.383,3.27 -2.861,6.028 -6.268,6.572 -1.768,0.282 -3.469,-0.104 -4.908,-0.927 -1.088,2.841 -3.601,5.054 -6.819,5.594 -1.515,0.254 -3.005,0.11 -4.362,-0.36 -1.433,2.648 -4.011,4.646 -7.208,5.21 -1.306,0.229 -2.596,0.193 -3.824,-0.059 -0.494,0.767 -1.078,1.476 -1.745,2.107 2.197,-0.63 4.431,-0.533 6.451,0.146 1.208,-1.771 3.01,-3.152 5.23,-3.797 2.39,-0.693 4.828,-0.4 6.894,0.626 1.011,-1.944 2.77,-3.492 5.046,-4.131 2.619,-0.737 5.292,-0.095 7.279,1.466 0.633,-2.252 2.37,-4.133 4.79,-4.795 3.661,-0.995 7.436,1.163 8.433,4.824 0.999,3.66 -1.162,7.438 -4.823,8.434 -1.891,0.515 -3.808,0.175 -5.365,-0.77 -0.482,3.075 -2.68,5.744 -5.871,6.642 -1.595,0.45 -3.21,0.385 -4.681,-0.081 -0.967,2.859 -3.264,5.214 -6.38,6.119 -1.379,0.401 -2.772,0.466 -4.106,0.263 -1.253,2.765 -3.643,4.997 -6.78,5.936 -1.183,0.355 -2.375,0.488 -3.544,0.443 -0.226,0.418 -0.478,0.822 -0.752,1.212 1.689,-0.497 3.417,-0.583 5.076,-0.316 1.074,-1.848 2.724,-3.381 4.849,-4.278 2.223,-0.935 4.589,-1.019 6.745,-0.41 0.903,-1.964 2.516,-3.609 4.672,-4.499 2.402,-0.988 4.983,-0.838 7.159,0.189 0.621,-2.16 2.162,-4.031 4.408,-4.935 2.745,-1.104 5.741,-0.452 7.813,1.39 -0.082,-2.548 1.399,-4.99 3.91,-5.975 3.185,-1.25 6.786,0.319 8.039,3.508 1.246,3.188 -0.32,6.788 -3.511,8.038 -2.077,0.816 -4.317,0.417 -5.979,-0.832 0.38,3.294 -1.424,6.564 -4.649,7.86 -1.667,0.674 -3.428,0.671 -5.024,0.177 -0.419,3.023 -2.381,5.751 -5.404,6.996 -1.436,0.59 -2.933,0.775 -4.372,0.613 -0.801,2.911 -2.875,5.44 -5.873,6.705 -1.235,0.521 -2.514,0.771 -3.778,0.794 -0.308,0.848 -0.711,1.66 -1.205,2.413 2.005,-1.098 4.209,-1.496 6.329,-1.278 0.779,-2.007 2.233,-3.762 4.263,-4.888 2.185,-1.214 4.642,-1.469 6.894,-0.918 0.548,-2.13 1.921,-4.04 4.004,-5.174 2.408,-1.311 5.172,-1.275 7.466,-0.174 0.102,-2.351 1.379,-4.59 3.605,-5.778 3.347,-1.787 7.507,-0.522 9.296,2.826 1.786,3.346 0.521,7.508 -2.827,9.296 -1.746,0.932 -3.709,1.016 -5.443,0.424 0.228,3.118 -1.325,6.229 -4.245,7.822 -1.47,0.797 -3.072,1.095 -4.621,0.961 -0.302,3.009 -2.018,5.826 -4.862,7.406 -1.265,0.702 -2.624,1.076 -3.978,1.168 -0.605,2.983 -2.442,5.7 -5.296,7.317 -1.083,0.613 -2.233,1.011 -3.393,1.225 -0.123,0.452 -0.277,0.893 -0.451,1.328 1.544,-0.86 3.215,-1.333 4.898,-1.435 0.635,-2.05 1.909,-3.922 3.785,-5.272 1.972,-1.418 4.278,-2.027 6.53,-1.899 0.439,-2.126 1.632,-4.099 3.546,-5.45 2.131,-1.506 4.693,-1.911 7.057,-1.38 0.108,-2.262 1.198,-4.456 3.203,-5.846 2.451,-1.702 5.542,-1.723 7.978,-0.355 -0.674,-2.481 0.224,-5.217 2.469,-6.746 2.83,-1.93 6.687,-1.2 8.617,1.63 1.927,2.83 1.198,6.688 -1.632,8.617 -1.861,1.27 -4.161,1.367 -6.069,0.493 1.131,3.136 0.102,6.756 -2.765,8.747 -1.505,1.042 -3.245,1.43 -4.937,1.284 0.277,3.052 -0.996,6.161 -3.679,8.056 -1.276,0.902 -2.709,1.377 -4.161,1.535 -0.118,3.036 -1.574,5.988 -4.232,7.899 -1.102,0.79 -2.307,1.325 -3.544,1.627 -0.108,0.882 -0.31,1.751 -0.62,2.587 1.716,-1.515 3.778,-2.39 5.898,-2.643 0.306,-2.138 1.337,-4.184 3.07,-5.739 1.873,-1.679 4.227,-2.472 6.558,-2.429 0.048,-2.206 0.963,-4.39 2.752,-5.966 2.065,-1.823 4.786,-2.401 7.285,-1.823 -0.442,-2.323 0.301,-4.807 2.216,-6.469 2.866,-2.487 7.205,-2.178 9.691,0.687 2.487,2.866 2.183,7.203 -0.683,9.69 -1.512,1.309 -3.421,1.823 -5.263,1.62 0.94,2.995 0.117,6.392 -2.387,8.603 -1.265,1.115 -2.776,1.767 -4.33,1.976 0.383,3.007 -0.665,6.144 -3.089,8.321 -1.086,0.975 -2.339,1.645 -3.651,2.034 0.078,3.049 -1.105,6.112 -3.535,8.329 -0.933,0.85 -1.975,1.497 -3.071,1.963 -0.017,0.461 -0.069,0.918 -0.138,1.373 1.318,-1.186 2.854,-2.019 4.479,-2.491 0.157,-2.148 0.982,-4.265 2.518,-6.005 1.614,-1.83 3.739,-2.94 5.972,-3.311 -0.048,-2.179 0.675,-4.38 2.247,-6.129 1.752,-1.954 4.178,-2.916 6.611,-2.916 -0.41,-2.237 0.162,-4.632 1.818,-6.443 2.023,-2.22 5.064,-2.927 7.759,-2.108 -1.238,-2.277 -0.982,-5.168 0.876,-7.172 1.024,-1.1 2.355,-1.719 3.733,-1.9 0.018,-1.171 0.442,-2.341 1.31,-3.261 0.656,-0.696 1.471,-1.142 2.333,-1.363 0.126,-0.634 0.422,-1.244 0.903,-1.746 1.349,-1.406 3.583,-1.451 4.986,-0.104 1.408,1.347 1.454,3.582 0.105,4.986 -0.052,0.053 -0.109,0.088 -0.159,0.138 0.493,1.619 0.15,3.445 -1.094,4.764 -0.463,0.493 -1.008,0.865 -1.589,1.12 0.523,1.984 0.063,4.185 -1.436,5.802 -1.548,1.67 -3.793,2.269 -5.871,1.815 1.837,2.809 1.647,6.597 -0.719,9.191 -1.243,1.361 -2.872,2.129 -4.567,2.356 0.963,2.918 0.416,6.247 -1.789,8.698 -1.051,1.174 -2.354,1.96 -3.748,2.434 0.569,2.993 -0.196,6.206 -2.367,8.667 -0.906,1.023 -1.968,1.82 -3.121,2.39 0.09,0.87 0.09,1.75 -0.018,2.621 1.34,-1.857 3.16,-3.165 5.178,-3.879 -0.184,-2.161 0.361,-4.394 1.71,-6.302 1.457,-2.068 3.591,-3.368 5.889,-3.836 -0.452,-2.173 -0.052,-4.513 1.345,-6.457 1.617,-2.251 4.164,-3.424 6.741,-3.402 -0.96,-2.174 -0.794,-4.777 0.711,-6.832 0.891,-1.222 2.117,-2.041 3.456,-2.468 -0.042,-1.209 0.289,-2.437 1.066,-3.483 0.593,-0.796 1.366,-1.364 2.215,-1.737 0.088,-0.71 0.338,-1.412 0.804,-2.024 1.4,-1.847 4.032,-2.21 5.877,-0.812 1.846,1.398 2.21,4.031 0.81,5.877 -0.024,0.035 -0.057,0.059 -0.084,0.092 0.62,1.693 0.409,3.656 -0.747,5.211 -0.379,0.512 -0.843,0.918 -1.342,1.255 0.668,2.034 0.39,4.343 -0.967,6.202 -1.19,1.623 -2.957,2.552 -4.814,2.75 1.602,2.717 1.56,6.229 -0.398,8.954 -0.993,1.378 -2.333,2.359 -3.817,2.907 1.054,2.847 0.732,6.149 -1.153,8.816 -0.852,1.205 -1.936,2.143 -3.14,2.815 0.765,2.96 0.289,6.219 -1.59,8.925 -0.722,1.047 -1.608,1.915 -2.583,2.618 0.085,0.446 0.136,0.894 0.169,1.346 1.029,-1.455 2.345,-2.612 3.835,-3.435 -0.331,-2.136 0,-4.391 1.114,-6.437 1.168,-2.151 3.002,-3.709 5.106,-4.567 -0.542,-2.12 -0.313,-4.441 0.831,-6.503 1.28,-2.308 3.438,-3.81 5.822,-4.345 -0.903,-2.093 -0.872,-4.559 0.338,-6.695 0.747,-1.324 1.842,-2.324 3.101,-2.975 -0.127,-1.248 0.108,-2.542 0.782,-3.712 0.518,-0.892 1.235,-1.583 2.047,-2.102 0.025,-0.785 0.221,-1.575 0.648,-2.301 1.364,-2.315 4.344,-3.087 6.657,-1.725 2.318,1.363 3.088,4.343 1.728,6.66 -0.018,0.024 -0.037,0.044 -0.052,0.067 0.771,1.75 0.744,3.821 -0.286,5.602 -0.304,0.53 -0.692,0.972 -1.114,1.373 0.837,2.06 0.789,4.457 -0.391,6.542 -0.912,1.606 -2.333,2.718 -3.938,3.316 1.596,2.636 1.783,6.025 0.178,8.913 -0.773,1.391 -1.867,2.486 -3.134,3.259 1.213,2.789 1.183,6.084 -0.385,8.963 -0.657,1.211 -1.53,2.233 -2.541,3.051 0.277,0.817 0.475,1.66 0.566,2.521 0.899,-2.11 2.39,-3.79 4.205,-4.931 -0.665,-2.071 -0.635,-4.38 0.256,-6.549 0.969,-2.352 2.77,-4.102 4.919,-5.066 -0.933,-2.024 -1.072,-4.404 -0.135,-6.619 0.593,-1.406 1.551,-2.535 2.695,-3.381 -0.241,-1.293 -0.115,-2.67 0.445,-3.97 0.422,-0.979 1.06,-1.791 1.818,-2.447 -0.053,-0.853 0.067,-1.73 0.434,-2.567 1.235,-2.795 4.504,-4.061 7.298,-2.827 2.794,1.233 4.061,4.5 2.829,7.295 -0.011,0.02 -0.023,0.035 -0.032,0.054 0.942,1.78 1.129,3.941 0.268,5.934 -0.229,0.535 -0.536,1.011 -0.88,1.454 1.029,2.067 1.217,4.537 0.251,6.831 -0.666,1.579 -1.768,2.837 -3.108,3.701 1.672,2.547 2.098,5.846 0.853,8.875 -0.566,1.376 -1.428,2.539 -2.463,3.47 0.753,1.453 1.18,3.068 1.225,4.726 0.051,-0.668 0.166,-1.339 0.353,-2.009 0.668,-2.368 2.117,-4.306 3.988,-5.611 -1.009,-1.949 -1.309,-4.271 -0.646,-6.548 0.432,-1.493 1.228,-2.783 2.257,-3.808 -0.356,-1.31 -0.382,-2.727 0.037,-4.121 0.313,-1.057 0.855,-1.983 1.534,-2.767 -0.149,-0.913 -0.12,-1.867 0.172,-2.811 1.008,-3.272 4.483,-5.107 7.753,-4.097 3.275,1.01 5.109,4.479 4.1,7.753 -0.006,0.014 -0.012,0.025 -0.017,0.04 1.14,1.784 1.552,4.018 0.899,6.206 -0.159,0.527 -0.376,1.021 -0.628,1.482 1.239,2.051 1.661,4.589 0.942,7.073 -0.449,1.54 -1.28,2.861 -2.358,3.902 1.813,2.45 2.523,5.677 1.631,8.839 -0.376,1.341 -1.005,2.542 -1.817,3.572 0.444,0.724 0.821,1.492 1.102,2.301 0.412,-2.264 1.498,-4.235 3.022,-5.752 -1.121,-1.876 -1.611,-4.141 -1.222,-6.463 0.262,-1.554 0.891,-2.952 1.772,-4.132 -0.496,-1.325 -0.683,-2.782 -0.42,-4.275 0.198,-1.125 0.617,-2.153 1.206,-3.053 -0.258,-0.961 -0.336,-1.984 -0.144,-3.025 0.506,-2.736 2.571,-4.776 5.106,-5.408 -2.131,-1.095 -3.396,-3.478 -2.914,-5.951 0.578,-3 3.481,-4.959 6.482,-4.379 2.999,0.58 4.959,3.482 4.381,6.482 -0.393,2.018 -1.843,3.546 -3.659,4.166 2.929,1.215 4.718,4.343 4.117,7.586 0,0.009 -0.007,0.014 -0.007,0.02 1.355,1.764 2.013,4.051 1.596,6.411 -0.091,0.518 -0.239,1.011 -0.417,1.484 1.476,2.007 2.176,4.581 1.729,7.23 -0.247,1.481 -0.834,2.817 -1.65,3.961 1.036,1.22 1.804,2.666 2.224,4.233 -0.089,-0.634 -0.125,-1.284 -0.093,-1.947 0.08,-1.577 0.522,-3.045 1.226,-4.346 -0.654,-1.329 -0.987,-2.839 -0.894,-4.424 0.066,-1.171 0.365,-2.274 0.837,-3.274 -0.388,-0.997 -0.59,-2.086 -0.512,-3.226 0.166,-2.531 1.572,-4.673 3.583,-5.909 -1.809,-1.199 -2.951,-3.292 -2.776,-5.61 0.256,-3.416 3.232,-5.976 6.647,-5.721 3.413,0.256 5.976,3.233 5.72,6.648 -0.133,1.776 -1.012,3.308 -2.293,4.346 2.636,1.314 4.364,4.114 4.16,7.235 1.583,1.711 2.503,4.033 2.356,6.544 -0.03,0.505 -0.109,0.991 -0.218,1.466 1.716,1.932 2.706,4.508 2.568,7.289 -0.071,1.405 -0.422,2.729 -0.995,3.921 0.587,0.6 1.121,1.257 1.569,1.971 -0.063,-1.495 0.18,-2.934 0.672,-4.257 -0.816,-1.31 -1.327,-2.838 -1.423,-4.487 -0.07,-1.203 0.096,-2.364 0.437,-3.448 -0.529,-1.018 -0.872,-2.155 -0.935,-3.381 -0.119,-2.399 0.822,-4.59 2.394,-6.171 -1.71,-1.184 -2.878,-3.107 -2.976,-5.346 -0.114,-2.8 1.469,-5.27 3.831,-6.437 -2.349,-0.576 -4.136,-2.631 -4.221,-5.166 -0.102,-3.054 2.294,-5.612 5.346,-5.714 3.053,-0.101 5.613,2.292 5.714,5.347 0.07,2.077 -1.031,3.905 -2.694,4.904 3.154,0.514 5.616,3.181 5.755,6.495 0.067,1.628 -0.46,3.126 -1.355,4.342 2.581,1.269 4.436,3.831 4.6,6.907 1.812,1.624 3.008,3.936 3.162,6.558 0.03,0.486 0.01,0.963 -0.037,1.435 0.831,0.769 1.535,1.668 2.09,2.666 -0.01,-0.668 0.041,-1.327 0.155,-1.97 -0.694,-1.02 -1.186,-2.198 -1.403,-3.493 -0.379,-2.276 0.147,-4.49 1.311,-6.286 -1.684,-1.126 -2.925,-2.904 -3.268,-5.063 -0.399,-2.52 0.506,-4.938 2.209,-6.592 -2.046,-0.759 -3.637,-2.552 -3.985,-4.863 -0.511,-3.388 1.82,-6.545 5.207,-7.058 3.384,-0.508 6.546,1.822 7.057,5.209 0.266,1.78 -0.264,3.485 -1.306,4.787 2.885,0.685 5.216,3.04 5.708,6.148 0.236,1.465 0.013,2.888 -0.536,4.156 2.609,1.178 4.6,3.59 5.112,6.624 v 0.001 c 2.037,1.501 3.525,3.749 3.999,6.44 0.084,0.462 0.119,0.921 0.139,1.379 0.59,0.451 1.137,0.959 1.634,1.518 -0.015,-0.329 -0.015,-0.656 0,-0.981 -0.851,-0.998 -1.515,-2.182 -1.907,-3.524 -0.623,-2.146 -0.452,-4.333 0.332,-6.257 -1.703,-1.041 -3.047,-2.683 -3.632,-4.759 -0.652,-2.324 -0.209,-4.683 0.982,-6.578 -1.944,-0.769 -3.525,-2.392 -4.118,-4.564 -0.74,-2.725 0.272,-5.512 2.342,-7.17 -2.438,-0.015 -4.661,-1.63 -5.313,-4.1 -0.781,-2.956 0.984,-5.981 3.942,-6.759 2.952,-0.78 5.977,0.984 6.758,3.939 0.538,2.038 -0.153,4.092 -1.592,5.437 3.209,-0.235 6.244,1.819 7.123,5.042 0.429,1.585 0.242,3.177 -0.373,4.571 2.819,0.659 5.212,2.753 6.053,5.737 0.37,1.321 0.362,2.647 0.096,3.903 2.684,1.037 4.869,3.261 5.737,6.236 0,0.003 0,0.009 0.002,0.016 1.249,0.745 2.354,1.741 3.229,2.948 -0.354,-1.499 -0.367,-3.019 -0.06,-4.464 -1.751,-0.937 -3.198,-2.463 -4.015,-4.444 -0.881,-2.147 -0.854,-4.434 -0.108,-6.453 -1.902,-0.72 -3.516,-2.18 -4.335,-4.216 -0.957,-2.384 -0.609,-4.962 0.705,-6.958 -2.18,-0.276 -4.142,-1.672 -5.005,-3.86 -1.253,-3.188 0.321,-6.785 3.509,-8.037 3.186,-1.25 6.788,0.318 8.036,3.506 0.667,1.694 0.517,3.493 -0.231,5.005 2.979,0.01 5.792,1.786 6.972,4.718 0.561,1.39 0.664,2.844 0.399,4.213 2.812,0.562 5.301,2.473 6.476,5.324 0.485,1.174 0.689,2.39 0.662,3.582 2.755,0.871 5.127,2.895 6.338,5.765 0.006,0.011 0.006,0.023 0.011,0.033 0.909,0.425 1.757,0.967 2.535,1.617 -0.25,-1.011 -0.35,-2.04 -0.3,-3.056 -1.813,-0.814 -3.386,-2.187 -4.425,-4.054 -1.091,-1.965 -1.407,-4.148 -1.061,-6.206 -1.907,-0.632 -3.589,-1.94 -4.625,-3.84 -1.162,-2.133 -1.248,-4.545 -0.492,-6.669 -2.083,-0.308 -3.999,-1.541 -5.065,-3.538 -1.336,-2.512 -0.963,-5.477 0.72,-7.559 -2.393,0.553 -4.948,-0.528 -6.14,-2.807 -1.417,-2.707 -0.373,-6.05 2.337,-7.467 2.708,-1.415 6.05,-0.369 7.465,2.339 0.988,1.891 0.756,4.079 -0.383,5.717 3.093,-0.981 6.537,0.34 8.121,3.306 0.782,1.462 0.952,3.073 0.644,4.581 2.908,0.005 5.722,1.515 7.209,4.247 0.661,1.216 0.946,2.526 0.963,3.82 2.855,0.41 5.49,2.091 6.997,4.806 0.571,1.024 0.92,2.111 1.083,3.206 2.848,0.671 5.425,2.472 6.979,5.22 0.012,0.015 0.019,0.032 0.024,0.045 0.62,0.217 1.216,0.489 1.795,0.801 -0.193,-0.648 -0.334,-1.305 -0.41,-1.967 -1.872,-0.678 -3.565,-1.902 -4.81,-3.637 -1.282,-1.781 -1.899,-3.833 -1.913,-5.871 -1.924,-0.523 -3.691,-1.651 -4.929,-3.405 -1.347,-1.906 -1.812,-4.157 -1.524,-6.301 -2.026,-0.269 -3.95,-1.335 -5.207,-3.151 -1.475,-2.122 -1.703,-4.734 -0.849,-6.978 -2.195,0.227 -4.439,-0.696 -5.767,-2.647 -1.934,-2.83 -1.203,-6.688 1.627,-8.617 2.826,-1.929 6.687,-1.2 8.615,1.631 1.037,1.518 1.285,3.324 0.876,4.977 2.917,-0.67 6.07,0.429 7.885,3.037 0.859,1.242 1.287,2.654 1.33,4.062 2.873,-0.083 5.732,1.221 7.514,3.745 0.74,1.048 1.206,2.199 1.442,3.379 2.887,0.231 5.664,1.678 7.487,4.215 0.626,0.873 1.097,1.812 1.414,2.784 1.2,0.182 2.372,0.559 3.469,1.112 -0.119,-0.12 -0.247,-0.232 -0.362,-0.36 -1.434,-1.571 -2.31,-3.45 -2.66,-5.401 -1.955,-0.389 -3.806,-1.377 -5.238,-2.974 -1.507,-1.68 -2.306,-3.75 -2.421,-5.843 -2.005,-0.189 -3.947,-1.091 -5.383,-2.719 -1.62,-1.833 -2.24,-4.177 -1.962,-6.425 -2.108,0.171 -4.263,-0.607 -5.754,-2.325 -1.882,-2.17 -2.159,-5.182 -0.936,-7.599 -2.222,1.118 -4.997,0.641 -6.684,-1.338 -1.984,-2.323 -1.711,-5.816 0.614,-7.799 2.324,-1.984 5.816,-1.708 7.804,0.615 1.404,1.648 1.653,3.875 0.865,5.742 2.802,-1.687 6.493,-1.185 8.714,1.373 1.095,1.263 1.621,2.814 1.647,4.364 2.838,-0.653 5.934,0.19 7.996,2.53 0.928,1.048 1.497,2.275 1.798,3.548 2.879,-0.242 5.833,0.81 7.912,3.126 0.789,0.883 1.379,1.875 1.781,2.92 2.933,0.016 5.849,1.198 7.986,3.535 0.661,0.727 1.196,1.524 1.624,2.361 0.643,0.039 1.284,0.123 1.909,0.265 -1.106,-1.187 -1.915,-2.564 -2.432,-4.025 -1.978,-0.241 -3.907,-1.058 -5.515,-2.477 -1.654,-1.459 -2.714,-3.335 -3.179,-5.329 -2,-0.077 -3.983,-0.783 -5.589,-2.224 -1.746,-1.569 -2.704,-3.673 -2.889,-5.84 -2.048,0.198 -4.167,-0.412 -5.805,-1.908 -1.92,-1.752 -2.73,-4.27 -2.38,-6.662 -2.099,0.727 -4.509,0.331 -6.249,-1.285 -2.512,-2.33 -2.656,-6.253 -0.327,-8.763 2.326,-2.511 6.252,-2.658 8.762,-0.329 1.361,1.265 2.002,2.994 1.959,4.716 2.696,-1.323 6.037,-0.964 8.396,1.185 1.129,1.028 1.863,2.325 2.211,3.7 2.789,-0.726 5.872,-0.094 8.179,1.974 0.962,0.863 1.675,1.897 2.171,3.007 2.875,-0.425 5.909,0.368 8.256,2.44 0.816,0.721 1.489,1.545 2.016,2.433 1.192,-0.091 2.394,0.009 3.566,0.291 -0.128,-0.083 -0.26,-0.156 -0.388,-0.242 -1.755,-1.222 -3.034,-2.868 -3.809,-4.703 -1.997,0.061 -4.031,-0.492 -5.789,-1.734 -1.853,-1.31 -3.094,-3.161 -3.671,-5.188 -2.005,0.271 -4.107,-0.177 -5.881,-1.45 -1.994,-1.435 -3.118,-3.601 -3.341,-5.867 -2.025,0.65 -4.317,0.375 -6.163,-0.976 -2.341,-1.713 -3.266,-4.626 -2.58,-7.271 -1.919,1.627 -4.767,1.792 -6.87,0.225 -2.451,-1.826 -2.96,-5.292 -1.137,-7.744 1.825,-2.449 5.291,-2.957 7.743,-1.132 1.759,1.309 2.497,3.464 2.108,5.485 2.358,-2.313 6.097,-2.666 8.85,-0.652 1.363,0.997 2.219,2.407 2.587,3.929 2.634,-1.283 5.849,-1.152 8.389,0.674 1.144,0.825 1.982,1.905 2.555,3.094 2.757,-0.884 5.88,-0.518 8.429,1.28 0.976,0.693 1.774,1.54 2.407,2.481 2.865,-0.642 5.98,-0.139 8.581,1.666 0.821,0.569 1.528,1.238 2.142,1.97 0.622,-0.103 1.252,-0.162 1.889,-0.167 -1.348,-0.917 -2.445,-2.084 -3.272,-3.402 -1.994,0.211 -4.065,-0.155 -5.955,-1.184 -1.935,-1.054 -3.385,-2.643 -4.283,-4.48 -1.974,0.378 -4.088,0.096 -5.982,-0.955 -2.063,-1.147 -3.481,-2.995 -4.146,-5.082 -1.956,0.653 -4.159,0.533 -6.097,-0.563 -2.277,-1.29 -3.62,-3.586 -3.8,-6.014 -1.889,1.198 -4.345,1.356 -6.412,0.161 -2.971,-1.712 -3.986,-5.505 -2.272,-8.472 1.711,-2.966 5.503,-3.981 8.472,-2.269 1.623,0.939 2.639,2.506 2.963,4.214 2.339,-1.914 5.693,-2.319 8.479,-0.741 1.341,0.761 2.353,1.87 3.003,3.148 2.561,-1.339 5.713,-1.408 8.432,0.096 1.143,0.635 2.08,1.491 2.811,2.477 2.708,-1.057 5.845,-0.96 8.601,0.539 0.969,0.526 1.813,1.191 2.532,1.952 1.12,-0.35 2.293,-0.525 3.478,-0.521 -0.132,-0.045 -0.26,-0.081 -0.39,-0.132 -1.994,-0.802 -3.609,-2.133 -4.774,-3.76 -1.94,0.51 -4.053,0.426 -6.053,-0.399 -2.105,-0.867 -3.738,-2.408 -4.747,-4.266 -1.899,0.718 -4.061,0.751 -6.083,-0.1 -2.275,-0.959 -3.86,-2.836 -4.574,-5.011 -1.833,1.099 -4.14,1.344 -6.254,0.434 -2.688,-1.159 -4.239,-3.832 -4.127,-6.592 -1.497,2.06 -4.272,2.874 -6.698,1.805 -2.793,-1.235 -4.061,-4.5 -2.829,-7.296 1.232,-2.794 4.5,-4.062 7.296,-2.828 2.032,0.898 3.244,2.874 3.284,4.959 1.771,-2.821 5.362,-4.023 8.518,-2.664 1.562,0.675 2.717,1.875 3.413,3.292 2.281,-1.849 5.456,-2.445 8.348,-1.224 1.316,0.554 2.377,1.433 3.207,2.477 2.494,-1.485 5.623,-1.826 8.515,-0.638 1.124,0.463 2.1,1.12 2.933,1.906 2.652,-1.267 5.802,-1.471 8.749,-0.289 0.939,0.377 1.787,0.879 2.552,1.464 0.579,-0.236 1.166,-0.429 1.779,-0.575 -1.527,-0.597 -2.857,-1.498 -3.959,-2.606 -1.898,0.656 -4.009,0.764 -6.09,0.178 -2.131,-0.599 -3.904,-1.837 -5.195,-3.443 -1.841,0.819 -3.976,1.021 -6.068,0.414 -2.275,-0.661 -4.081,-2.162 -5.188,-4.063 -1.766,1.084 -3.954,1.465 -6.091,0.823 -2.529,-0.755 -4.353,-2.716 -5.055,-5.065 -1.572,1.609 -3.953,2.325 -6.252,1.617 -3.273,-1.011 -5.108,-4.483 -4.101,-7.754 1.013,-3.273 4.485,-5.106 7.757,-4.098 1.812,0.559 3.153,1.884 3.847,3.498 1.847,-2.406 5.047,-3.564 8.127,-2.642 1.49,0.445 2.736,1.312 3.65,2.429 2.198,-1.883 5.273,-2.662 8.254,-1.794 1.271,0.368 2.392,1 3.327,1.813 2.408,-1.642 5.495,-2.249 8.524,-1.399 1.072,0.304 2.05,0.77 2.926,1.361 0.999,-0.58 2.077,-1.012 3.211,-1.275 -0.122,-0.015 -0.237,-0.019 -0.356,-0.037 -2.133,-0.34 -4.014,-1.285 -5.515,-2.624 -1.784,0.936 -3.874,1.329 -6.009,0.969 -2.263,-0.378 -4.204,-1.525 -5.602,-3.126 -1.697,1.133 -3.807,1.651 -5.974,1.271 -2.446,-0.433 -4.419,-1.922 -5.598,-3.9 -1.54,1.495 -3.75,2.256 -6.022,1.836 -2.908,-0.537 -5.021,-2.833 -5.498,-5.582 -0.987,2.38 -3.533,3.819 -6.162,3.311 -3,-0.58 -4.962,-3.484 -4.38,-6.482 0.577,-3.001 3.481,-4.962 6.484,-4.382 2.206,0.429 3.844,2.118 4.326,4.177 1.076,-3.18 4.327,-5.184 7.728,-4.553 1.687,0.312 3.096,1.236 4.092,2.481 1.807,-2.323 4.779,-3.62 7.881,-3.072 1.417,0.249 2.661,0.879 3.708,1.724 2.102,-2.011 5.085,-3.046 8.175,-2.528 1.211,0.202 2.321,0.63 3.314,1.226 2.306,-1.834 5.337,-2.739 8.478,-2.24 1.011,0.16 1.963,0.465 2.846,0.874 0.504,-0.353 1.032,-0.67 1.581,-0.945 -1.624,-0.245 -3.127,-0.832 -4.45,-1.675 m 0.372,-66.539 c -0.391,0.46 -0.818,0.893 -1.283,1.282 0.525,-0.176 1.062,-0.331 1.618,-0.436 0.931,-0.171 1.851,-0.214 2.75,-0.161 0.137,-0.182 0.282,-0.352 0.42,-0.525 -1.186,0.119 -2.367,0.059 -3.505,-0.16 m -1.354,-23.792 c -0.043,0.06 -0.084,0.119 -0.131,0.181 0.061,-0.023 0.117,-0.046 0.183,-0.067 0.109,-0.032 0.217,-0.052 0.332,-0.085 -0.131,0 -0.259,-0.026 -0.384,-0.029 m -14.503,-18.02 c -0.275,0.525 -0.588,1.031 -0.942,1.507 0.462,-0.283 0.942,-0.549 1.456,-0.768 0.878,-0.379 1.776,-0.63 2.683,-0.777 0.086,-0.2 0.188,-0.39 0.285,-0.585 -1.143,0.383 -2.315,0.588 -3.482,0.623 m -6.584,-22.884 c -0.024,0.065 -0.049,0.126 -0.078,0.187 0.054,-0.032 0.103,-0.07 0.152,-0.1 0.09,-0.046 0.18,-0.087 0.27,-0.139 -0.116,0.024 -0.229,0.033 -0.344,0.052 m -18.148,-14.305 c -0.144,0.559 -0.338,1.11 -0.569,1.644 0.381,-0.37 0.784,-0.73 1.225,-1.051 0.783,-0.576 1.621,-1.026 2.48,-1.374 0.038,-0.203 0.09,-0.406 0.143,-0.61 -1.037,0.632 -2.142,1.091 -3.279,1.391 m -11.481,-20.845 c -0.009,0.06 -0.02,0.123 -0.03,0.183 0.041,-0.04 0.077,-0.084 0.117,-0.123 0.066,-0.06 0.134,-0.111 0.198,-0.168 -0.092,0.044 -0.189,0.068 -0.285,0.108 m -20.871,-9.878 c -0.02,0.566 -0.079,1.132 -0.18,1.695 0.282,-0.437 0.587,-0.868 0.945,-1.275 0.643,-0.743 1.374,-1.372 2.143,-1.908 -0.006,-0.203 -0.003,-0.405 0,-0.605 -0.874,0.85 -1.858,1.55 -2.908,2.093 M 408.87,107.553 c 0.009,0.054 0.009,0.106 0.014,0.161 0.029,-0.044 0.051,-0.093 0.081,-0.134 0.038,-0.059 0.087,-0.113 0.128,-0.171 -0.071,0.052 -0.15,0.092 -0.223,0.144 m -20.143,-7.66 c -0.665,1.027 -1.48,1.936 -2.394,2.704 0.111,0.547 0.175,1.098 0.201,1.657 0.177,-0.485 0.384,-0.961 0.629,-1.427 0.471,-0.883 1.05,-1.665 1.691,-2.366 -0.048,-0.19 -0.085,-0.381 -0.127,-0.568 M 367.012,88.781 c 0.014,0.044 0.027,0.088 0.041,0.133 0.016,-0.049 0.025,-0.094 0.044,-0.139 0.021,-0.053 0.047,-0.102 0.07,-0.155 -0.049,0.058 -0.106,0.105 -0.155,0.161 m -21.31,-2.984 c -0.429,1.168 -1.022,2.233 -1.747,3.191 0.224,0.492 0.403,1.01 0.554,1.534 0.067,-0.5 0.157,-1.001 0.294,-1.499 0.266,-0.976 0.658,-1.879 1.139,-2.717 -0.085,-0.168 -0.164,-0.338 -0.24,-0.509 m -23.63,-5.993 c 0.019,0.032 0.038,0.065 0.058,0.103 0.006,-0.046 0.006,-0.093 0.011,-0.133 0.005,-0.046 0.018,-0.085 0.027,-0.128 -0.03,0.055 -0.068,0.104 -0.096,0.158 m -21.41,1.831 c -0.155,1.237 -0.503,2.422 -1.004,3.523 0.324,0.416 0.607,0.867 0.865,1.336 -0.041,-0.49 -0.065,-0.988 -0.041,-1.496 0.041,-1.023 0.229,-2.005 0.517,-2.938 -0.117,-0.136 -0.226,-0.281 -0.337,-0.425 m -24.307,-0.636 c -0.002,-0.028 0,-0.058 -0.002,-0.085 -0.016,0.046 -0.035,0.087 -0.046,0.136 0.018,0.024 0.042,0.049 0.06,0.073 0,-0.043 -0.012,-0.084 -0.012,-0.124 m -19.931,9.933 c -0.185,-1.019 -0.222,-2.031 -0.144,-3.019 -0.138,-0.1 -0.27,-0.214 -0.407,-0.322 0.125,1.251 0.046,2.486 -0.204,3.678 0.4,0.332 0.77,0.698 1.123,1.087 -0.147,-0.461 -0.277,-0.932 -0.368,-1.424 m -24.392,1.444 c -0.006,-0.015 -0.006,-0.03 -0.011,-0.042 0,0.036 -0.009,0.065 -0.012,0.102 0.02,0.015 0.042,0.032 0.059,0.043 -0.008,-0.037 -0.023,-0.065 -0.036,-0.103 m -17.19,14.132 c -0.415,-0.965 -0.677,-1.955 -0.819,-2.946 -0.151,-0.071 -0.301,-0.147 -0.448,-0.217 0.4,1.197 0.599,2.428 0.616,3.656 0.455,0.226 0.892,0.495 1.313,0.786 -0.241,-0.408 -0.469,-0.832 -0.662,-1.279 m -23.447,6.805 c 0.003,0.021 0.003,0.041 0.006,0.062 0.018,0.006 0.031,0.017 0.049,0.021 -0.018,-0.03 -0.037,-0.053 -0.055,-0.083 m -13.584,17.607 c -0.626,-0.86 -1.107,-1.777 -1.469,-2.727 -0.157,-0.03 -0.307,-0.07 -0.464,-0.105 0.663,1.085 1.132,2.252 1.421,3.452 0.482,0.117 0.954,0.274 1.422,0.462 -0.32,-0.343 -0.627,-0.699 -0.91,-1.082 m -21.315,11.839 c 0.003,0.011 0.005,0.024 0.012,0.033 0.006,0.002 0.018,0.006 0.027,0.006 -0.015,-0.011 -0.027,-0.024 -0.039,-0.039 m -9.318,20.164 c -0.813,-0.703 -1.49,-1.504 -2.059,-2.359 -0.151,0.006 -0.304,-0.001 -0.455,0 0.891,0.918 1.611,1.96 2.162,3.075 0.488,0.006 0.969,0.054 1.457,0.126 -0.38,-0.26 -0.753,-0.534 -1.105,-0.842 m -18.12,16.275 c 0,0 0,0.005 0.002,0.005 h 0.006 c -0.003,-0.003 -0.006,-0.005 -0.008,-0.005 m -4.595,21.706 c -0.96,-0.512 -1.812,-1.15 -2.56,-1.87 -0.137,0.04 -0.282,0.064 -0.42,0.097 1.08,0.704 2.016,1.568 2.806,2.541 0.463,-0.103 0.933,-0.167 1.409,-0.208 -0.416,-0.163 -0.829,-0.344 -1.235,-0.56 m -13.674,42.035 c -1.062,-0.292 -2.048,-0.729 -2.945,-1.272 -0.12,0.064 -0.247,0.118 -0.373,0.178 1.222,0.449 2.336,1.09 3.323,1.871 0.419,-0.198 0.852,-0.363 1.296,-0.508 -0.435,-0.066 -0.868,-0.152 -1.301,-0.269 m -7.161,43.377 c -0.098,0.085 -0.203,0.162 -0.304,0.246 1.299,0.167 2.533,0.548 3.677,1.095 0.355,-0.279 0.729,-0.533 1.115,-0.769 -0.428,0.029 -0.859,0.042 -1.295,0.024 -1.114,-0.046 -2.184,-0.257 -3.193,-0.596 m 9.449,44.976 c 0.271,-0.343 0.569,-0.668 0.885,-0.977 -0.403,0.119 -0.813,0.222 -1.235,0.3 -1.107,0.206 -2.209,0.237 -3.278,0.127 -0.073,0.1 -0.153,0.193 -0.232,0.291 1.313,-0.127 2.614,-0.026 3.86,0.259 m 15.613,41.136 c 0.186,-0.384 0.392,-0.758 0.62,-1.121 -0.355,0.2 -0.723,0.386 -1.107,0.552 -1.049,0.452 -2.132,0.732 -3.21,0.861 -0.045,0.108 -0.103,0.209 -0.15,0.315 1.261,-0.418 2.558,-0.609 3.847,-0.607 m 24.35,36.592 c 0.09,-0.407 0.198,-0.809 0.337,-1.202 -0.295,0.268 -0.607,0.524 -0.939,0.765 -0.934,0.684 -1.933,1.2 -2.969,1.567 -0.021,0.106 -0.051,0.214 -0.072,0.321 1.144,-0.695 2.375,-1.17 3.643,-1.451 m 28.589,32.453 c 0.969,-0.937 2.071,-1.677 3.251,-2.236 0,-0.405 0.012,-0.81 0.057,-1.213 -0.226,0.319 -0.466,0.629 -0.731,0.932 -0.765,0.884 -1.638,1.618 -2.581,2.21 0.007,0.102 0,0.204 0.004,0.307 m 38.283,23.031 c 0.74,-1.135 1.659,-2.109 2.697,-2.919 -0.093,-0.387 -0.169,-0.778 -0.216,-1.174 -0.147,0.357 -0.313,0.71 -0.5,1.059 -0.554,1.042 -1.253,1.964 -2.047,2.756 0.024,0.091 0.042,0.187 0.066,0.278 m 21.875,3.063 c 0.684,-1.654 1.716,-3.083 2.992,-4.216 -0.436,-1.096 -0.695,-2.266 -0.731,-3.472 -0.081,1.098 -0.321,2.203 -0.756,3.281 -0.482,1.194 -1.155,2.245 -1.962,3.154 0.173,0.409 0.325,0.827 0.457,1.253 m 20.527,10.861 c 0.472,-1.281 1.158,-2.444 1.999,-3.468 -0.175,-0.352 -0.331,-0.708 -0.464,-1.076 -0.067,0.376 -0.145,0.753 -0.246,1.129 -0.316,1.154 -0.795,2.218 -1.407,3.177 0.042,0.079 0.076,0.16 0.118,0.238 m 21.989,-1.914 c 0.301,-1.771 0.994,-3.4 1.996,-4.792 -0.647,-0.933 -1.143,-1.973 -1.453,-3.091 0.149,1.05 0.146,2.139 -0.031,3.242 -0.205,1.281 -0.632,2.468 -1.229,3.543 0.26,0.354 0.497,0.721 0.717,1.098 m 22.399,6.051 c 0.182,-1.365 0.595,-2.657 1.192,-3.85 -0.24,-0.298 -0.469,-0.605 -0.681,-0.926 0.019,0.376 0.024,0.756 0.011,1.14 -0.051,1.208 -0.289,2.363 -0.675,3.443 0.057,0.062 0.1,0.129 0.153,0.193 m 20.99,-6.785 c -0.059,-1.082 0.026,-2.148 0.254,-3.169 -0.277,-0.36 -0.528,-0.74 -0.757,-1.138 0.039,1.187 -0.111,2.332 -0.423,3.416 0.323,0.278 0.63,0.578 0.926,0.891 m 23.166,0.949 c -0.068,-0.738 -0.066,-1.473 -0.003,-2.195 -0.041,-0.044 -0.079,-0.089 -0.119,-0.132 0.049,0.739 0.03,1.468 -0.061,2.183 0.066,0.046 0.121,0.097 0.183,0.144 m 18.58,-11.524 c 0.358,0.22 0.704,0.455 1.036,0.712 -0.006,-0.063 -0.004,-0.125 -0.009,-0.188 -0.439,-0.411 -0.841,-0.865 -1.208,-1.359 0.073,0.279 0.133,0.556 0.181,0.835 m 62.187,-26.497 c 0.019,0.023 0.029,0.048 0.049,0.073 0.331,0.078 0.652,0.172 0.975,0.276 -0.129,-0.344 -0.242,-0.692 -0.336,-1.042 -0.665,-0.181 -1.312,-0.423 -1.935,-0.73 0.446,0.436 0.868,0.903 1.247,1.423 m 21.409,-12.283 c 0.025,0.027 0.044,0.056 0.069,0.083 0.053,0.008 0.109,0.016 0.166,0.024 -0.034,-0.073 -0.063,-0.152 -0.093,-0.225 -0.109,-0.02 -0.215,-0.034 -0.321,-0.054 0.063,0.06 0.123,0.111 0.179,0.172 m 9.745,-20.202 c 0.672,0.584 1.251,1.235 1.758,1.925 0.25,-0.008 0.503,-0.003 0.757,0.004 -0.812,-0.829 -1.479,-1.758 -2.014,-2.75 -0.667,-0.025 -1.336,-0.111 -1.994,-0.262 0.517,0.32 1.017,0.672 1.493,1.083 m 18.141,-16.704 c 0.146,0.096 0.272,0.207 0.411,0.31 -0.117,-0.143 -0.207,-0.304 -0.318,-0.452 -0.098,0.005 -0.197,0.015 -0.298,0.016 0.068,0.045 0.139,0.081 0.205,0.126 m 4.973,-21.857 c 0.796,0.425 1.512,0.94 2.168,1.511 0.237,-0.063 0.477,-0.112 0.718,-0.161 -0.982,-0.631 -1.847,-1.395 -2.591,-2.252 -0.635,0.121 -1.289,0.189 -1.947,0.193 0.558,0.194 1.111,0.421 1.652,0.709 m 13.934,-42.692 c 0.887,0.242 1.712,0.591 2.484,1.009 0.214,-0.108 0.427,-0.208 0.647,-0.306 -1.106,-0.402 -2.127,-0.959 -3.047,-1.635 -0.579,0.254 -1.181,0.464 -1.801,0.615 0.575,0.066 1.147,0.162 1.717,0.317 m 0.044,22.401 c 0.15,0.057 0.288,0.13 0.432,0.196 -0.132,-0.108 -0.249,-0.234 -0.377,-0.344 -0.094,0.024 -0.177,0.051 -0.268,0.076 0.071,0.025 0.142,0.043 0.213,0.072 m 78.293,-63.832 c 0,8.142 -5.341,15.033 -12.705,17.378 3.222,3.617 4.957,8.527 4.348,13.717 -0.517,4.434 -2.65,8.283 -5.735,11.038 5.824,4.146 8.902,11.52 7.21,18.921 -1.823,8.002 -8.652,13.559 -16.432,14.135 2.288,4.222 2.861,9.353 1.131,14.236 -1.479,4.171 -4.377,7.42 -7.952,9.424 4.865,5.338 6.287,13.293 2.962,20.199 -3.56,7.388 -11.447,11.288 -19.151,10.125 1.295,4.628 0.712,9.762 -2.063,14.141 -2.372,3.739 -5.923,6.263 -9.858,7.42 3.541,6.286 3.157,14.35 -1.617,20.338 -5.107,6.407 -13.656,8.457 -20.907,5.617 0.234,4.803 -1.474,9.683 -5.158,13.335 -3.145,3.122 -7.174,4.792 -11.273,5.043 2.048,6.911 -0.123,14.678 -6.106,19.449 -6.401,5.107 -15.185,5.206 -21.623,0.835 -0.838,4.737 -3.588,9.119 -7.994,11.861 -3.766,2.346 -8.07,3.08 -12.123,2.407 0.451,7.189 -3.395,14.27 -10.284,17.585 -7.372,3.552 -15.949,1.702 -21.252,-3.985 -1.869,4.437 -5.531,8.099 -10.441,9.795 -4.194,1.449 -8.559,1.206 -12.365,-0.355 -1.163,7.102 -6.486,13.137 -13.935,14.838 -7.973,1.82 -15.917,-1.887 -19.827,-8.6 -2.808,3.913 -7.196,6.673 -12.362,7.236 -4.418,0.478 -8.622,-0.734 -11.984,-3.105 -2.717,6.656 -9.249,11.349 -16.88,11.349 -8.171,0 -15.091,-5.374 -17.408,-12.782 -3.613,3.197 -8.508,4.913 -13.674,4.31 -4.414,-0.517 -8.246,-2.634 -11,-5.699 -4.131,5.874 -11.538,8.988 -18.974,7.291 -7.96,-1.816 -13.505,-8.588 -14.125,-16.318 -4.233,2.316 -9.391,2.905 -14.298,1.165 -4.194,-1.487 -7.46,-4.407 -9.462,-8.013 -5.335,4.796 -13.242,6.181 -20.108,2.873 -7.352,-3.54 -11.248,-11.366 -10.143,-19.035 -4.642,1.319 -9.809,0.746 -14.207,-2.044 -3.761,-2.385 -6.296,-5.964 -7.446,-9.927 -6.268,3.479 -14.276,3.066 -20.228,-1.682 -6.373,-5.084 -8.433,-13.571 -5.656,-20.8 -4.824,0.256 -9.737,-1.45 -13.41,-5.154 -3.138,-3.163 -4.814,-7.221 -5.049,-11.344 -6.881,1.988 -14.586,-0.198 -19.33,-6.146 -5.08,-6.372 -5.2,-15.097 -0.894,-21.523 -4.767,-0.823 -9.178,-3.581 -11.935,-8.011 -2.36,-3.787 -3.09,-8.118 -2.4,-12.195 -7.145,0.4 -14.161,-3.447 -17.458,-10.295 -3.534,-7.337 -1.714,-15.863 3.905,-21.17 -4.468,-1.863 -8.16,-5.535 -9.865,-10.472 -1.456,-4.219 -1.206,-8.61 0.379,-12.429 -7.047,-1.208 -13.023,-6.517 -14.712,-13.923 -1.811,-7.933 1.854,-15.833 8.506,-19.76 -3.948,-2.811 -6.733,-7.215 -7.298,-12.411 -0.481,-4.44 0.742,-8.669 3.142,-12.044 -6.593,-2.749 -11.228,-9.249 -11.23,-16.839 -0.001,-8.131 5.324,-15.015 12.676,-17.367 -3.228,-3.618 -4.967,-8.536 -4.36,-13.731 0.519,-4.443 2.654,-8.295 5.749,-11.051 -5.807,-4.148 -8.873,-11.514 -7.185,-18.904 1.807,-7.923 8.521,-13.447 16.206,-14.109 -2.347,-4.249 -2.951,-9.436 -1.202,-14.368 1.497,-4.218 4.439,-7.501 8.074,-9.501 -4.728,-5.335 -6.073,-13.193 -2.785,-20.015 3.521,-7.315 11.289,-11.206 18.922,-10.152 -1.347,-4.666 -0.78,-9.862 2.024,-14.283 2.398,-3.785 6.001,-6.334 9.992,-7.47 -3.411,-6.253 -2.97,-14.202 1.749,-20.119 5.059,-6.347 13.488,-8.411 20.694,-5.695 -0.28,-4.847 1.427,-9.79 5.148,-13.482 3.185,-3.155 7.268,-4.843 11.417,-5.06 -1.927,-6.85 0.273,-14.495 6.186,-19.21 6.34,-5.054 15.009,-5.193 21.427,-0.954 0.806,-4.791 3.57,-9.237 8.026,-12.008 3.806,-2.371 8.165,-3.105 12.263,-2.394 -0.347,-7.099 3.501,-14.055 10.308,-17.333 7.301,-3.512 15.776,-1.725 21.089,3.828 1.855,-4.5 5.539,-8.22 10.501,-9.935 4.246,-1.464 8.665,-1.205 12.5,0.402 1.247,-6.991 6.543,-12.906 13.903,-14.587 7.894,-1.801 15.752,1.823 19.698,8.411 2.81,-3.982 7.235,-6.79 12.456,-7.358 4.468,-0.482 8.724,0.751 12.109,3.177 2.774,-6.529 9.248,-11.108 16.793,-11.108 8.088,0 14.941,5.275 17.329,12.568 3.618,-3.261 8.562,-5.021 13.785,-4.41 4.47,0.524 8.344,2.681 11.105,5.804 4.163,-5.742 11.483,-8.761 18.834,-7.084 7.881,1.798 13.388,8.458 14.096,16.092 4.26,-2.378 9.474,-2.993 14.431,-1.234 4.242,1.506 7.541,4.474 9.541,8.141 5.335,-4.663 13.14,-5.975 19.925,-2.707 7.28,3.507 11.162,11.214 10.163,18.813 4.686,-1.375 9.909,-0.817 14.354,2 3.806,2.415 6.366,6.052 7.495,10.073 6.236,-3.349 14.128,-2.889 20.012,1.803 6.309,5.034 8.385,13.407 5.727,20.584 4.875,-0.296 9.848,1.409 13.559,5.15 3.178,3.202 4.864,7.32 5.066,11.497 6.82,-1.869 14.404,0.337 19.092,6.216 5.033,6.309 5.188,14.923 1.01,21.329 4.826,0.791 9.304,3.56 12.089,8.036 2.386,3.836 3.11,8.229 2.377,12.352 7.061,-0.303 13.955,3.536 17.213,10.307 3.496,7.261 1.738,15.69 -3.748,21.009 4.532,1.842 8.281,5.539 10.003,10.527 1.475,4.273 1.206,8.723 -0.433,12.583 6.944,1.283 12.801,6.554 14.469,13.874 1.794,7.854 -1.789,15.672 -8.315,19.636 4.016,2.806 6.85,7.249 7.423,12.5 0.486,4.499 -0.776,8.778 -3.233,12.177 6.472,2.8 11.007,9.237 11.007,16.74 m -372.101,0 c 0.003,-0.1 0.084,-0.182 0.184,-0.182 0.102,0 0.183,0.082 0.183,0.182 0,0.102 -0.081,0.183 -0.18,0.183 -0.103,0 -0.184,-0.081 -0.187,-0.183 m -4.143,11.908 c 0.054,0.467 -0.282,0.89 -0.746,0.944 -0.47,0.053 -0.891,-0.28 -0.945,-0.746 -0.055,-0.468 0.276,-0.891 0.746,-0.944 0.467,-0.055 0.891,0.277 0.945,0.746 m -2.996,12.946 c 0.194,0.815 -0.31,1.636 -1.128,1.828 -0.816,0.195 -1.635,-0.311 -1.831,-1.128 -0.192,-0.818 0.313,-1.636 1.132,-1.829 0.814,-0.193 1.632,0.313 1.827,1.129 m -2.604,16.591 c -1.137,0.413 -2.393,-0.172 -2.805,-1.309 -0.415,-1.135 0.171,-2.391 1.306,-2.805 1.138,-0.414 2.394,0.173 2.806,1.307 0.415,1.138 -0.171,2.393 -1.307,2.807"
           style="fill:#231f20;fill-opacity:1;fill-rule:nonzero;stroke:none"
           id="path1133"
           inkscape:connector-curvature="0" /></g></g></g></svg>